<svg t="1711261790061" class="icon" viewBox="0 0 1024 1024" version="1.1" xmlns="http://www.w3.org/2000/svg" p-id="1546" width="200" height="200"><path d="M512 512m512 0a512 512 0 1 0-1024 0 512 512 0 1 0 1024 0Z" fill="#FE7325" p-id="1547"></path><path d="M512 1024C229.239467 1024 0 794.760533 0 512 0 229.239467 229.239467 0 512 0c282.760533 0 512 229.239467 512 512 0 282.760533-229.239467 512-512 512z m0-68.266667c245.077333 0 443.733333-198.656 443.733333-443.733333S757.077333 68.266667 512 68.266667 68.266667 266.922667 68.266667 512s198.656 443.733333 443.733333 443.733333z" fill="#FFFFFF" p-id="1548"></path><path d="M776.055467 471.825067c-2.935467-0.443733-5.802667-2.833067-8.260267-6.621867-2.389333-3.7888-4.334933-11.400533-5.802667-21.845333-2.389333-17.066667-7.714133-29.866667-16.930133-37.922134-9.181867-8.055467-23.210667-13.755733-42.564267-17.544533a118.3744 118.3744 0 0 1-53.213866-24.234667 314.4704 314.4704 0 0 1-38.7072-34.133333c-9.693867-9.0112-17.408-12.288-22.7328-9.966933-5.3248 2.8672-8.226133 7.611733-8.226134 14.711466v90.112c0 24.6784 0 51.234133-0.477866 79.701334 0 28.4672-0.512 55.5008-0.512 81.1008v104.8576c0.512 10.4448-1.4336 22.289067-4.8128 35.089066a97.826133 97.826133 0 0 1-21.2992 36.522667 134.212267 134.212267 0 0 1-42.0864 29.422933c-17.408 8.055467-39.185067 12.8-65.3312 14.2336-26.624 1.399467-50.312533-3.310933-71.5776-13.755733-21.2992-10.4448-37.751467-23.722667-49.3568-39.867733-11.605333-16.110933-17.408-33.655467-16.930134-52.6336 0-18.978133 8.704-37.000533 25.156267-53.589334 16.452267-16.622933 34.338133-28.4672 53.691733-35.1232 19.3536-6.621867 37.751467-10.410667 55.637334-10.922666 17.92-0.443733 33.860267 0.512 47.889066 3.822933 14.062933 2.833067 24.6784 5.700267 31.470934 8.533333v-185.9584c0-51.677867 0-110.045867 0.477866-175.035733 0-12.8 3.413333-23.210667 10.171734-31.300267a39.936 39.936 0 0 1 27.067733-14.199466c9.216-1.4336 16.930133 0.443733 23.210667 5.666133 6.314667 5.2224 12.117333 11.8784 18.432 20.8896 6.2464 9.0112 13.994667 19.456 23.210666 30.8224 9.181867 11.3664 21.742933 22.766933 37.239467 33.6896 13.550933 9.966933 25.156267 17.544533 35.328 21.8112 10.1376 4.266667 19.3536 8.533333 28.0576 12.322133 8.704 3.7888 17.408 8.055467 25.634133 13.312 8.704 5.188267 17.885867 13.7216 28.0576 25.6 10.171733 11.3664 16.452267 23.210667 18.875734 35.566934 2.389333 12.322133 2.389333 23.722667 0.477866 33.655466a64.7168 64.7168 0 0 1-9.659733 24.6784c-4.369067 6.178133-8.226133 9.0112-11.605333 8.533334z" fill="#FFFFFF" p-id="1549"></path><path d="M240.427849 272.144143m32.583481-32.58348l0 0q32.58348-32.58348 65.166961 0l441.687179 441.68718q32.58348 32.58348 0 65.166961l0 0q-32.58348 32.58348-65.166961 0l-441.687179-441.68718q-32.58348-32.58348 0-65.166961Z" fill="#FFFFFF" p-id="1550"></path></svg>