<svg t="1711261867848" class="icon" viewBox="0 0 1024 1024" version="1.1" xmlns="http://www.w3.org/2000/svg" p-id="9870" id="mx_n_1711261867849" width="200" height="200"><path d="M511.081931 503.454897m-503.454897 0a503.454897 503.454897 0 1 0 1006.909794 0 503.454897 503.454897 0 1 0-1006.909794 0Z" fill="#FE7325" p-id="9871" data-spm-anchor-id="a313x.search_index.0.i1.91123a812Y1tuU" class="selected"></path><path d="M765.810759 240.180966c1.024 3.531034 1.518345 7.238621 1.518344 10.946206v76.446897c0 17.761103-11.793655 33.403586-28.848551 38.276414l-190.181518 54.30731v236.120276A139.369931 139.369931 0 0 1 413.696 795.542069l-4.766897 0.070621a139.369931 139.369931 0 1 1 79.660138-253.740138V297.878069h1.271173c3.601655-13.594483 14.088828-24.293517 27.612689-28.177655l199.115035-56.884966a39.830069 39.830069 0 0 1 49.222621 27.365518z" fill="#FFFFFF" p-id="9872"></path></svg>