<svg t="1711271130801" class="icon" viewBox="0 0 1027 1024" version="1.1" xmlns="http://www.w3.org/2000/svg" p-id="23502" width="200" height="200"><path d="M0 512a512 512 0 1 0 1024 0C1024 229.231056 794.7815 0 512 0S0 229.231056 0 512z m0 0" fill="#FAD59A" p-id="23503"></path><path d="M603.431262 1015.88896a519.382804 519.382804 0 0 1-182.862524 0V773.712884H603.431262z m0 0" fill="#FCE9E9" p-id="23504"></path><path d="M552.567757 1022.392859c-13.371916 1.029575-26.856835 1.607141-40.567757 1.607141-10.396194 0-20.691942-0.351562-30.862132-0.916573l78.749915-154.963558a158.56707 158.56707 0 0 1-48.465349 7.307469c-38.169601 0-71.655893-12.55579-90.853696-31.389474v-70.312424H603.431262v69.056845l-1.255579 1.255579 1.255579 1.029574v83.659228z m0 0" fill="#F2B2B1" p-id="23505"></path><path d="M214.051106 928.450439L420.618961 848.005493l33.900633 172.792781a509.174947 509.174947 0 0 1-240.355486-92.347835z m355.328854 92.347835l34.051302-172.792781 206.505076 80.444946A509.915739 509.915739 0 0 1 569.367404 1020.785718z m0 0" fill="#E5D6C6" p-id="23506"></path><path d="M454.406592 1020.785718c-10.860758-1.255579-21.495512-2.749718-32.117711-4.570308l-75.66119-139.369267 63.544853-24.684683 18.168228 35.658443z m147.191525-4.570308c-10.622198 1.82059-21.482956 3.427731-32.343715 4.68331l26.291824-133.091373 18.168228-35.771445 63.544852 24.684683z m0 0" fill="#C39F86" p-id="23507"></path><path d="M576.687429 1019.994703a524.367453 524.367453 0 0 1-129.324635 0l-81.612635-150.280249L420.618961 827.426554l91.431262 179.773799L603.431262 827.426554l54.856246 42.2879z m0 0" fill="#E5D6C6" p-id="23508"></path><path d="M603.431262 1015.88896V827.426554l208.802786 99.316298a509.978518 509.978518 0 0 1-208.802786 89.146108z m0 0" fill="#B56B6B" p-id="23509"></path><path d="M338.290647 993.828437a17.138653 17.138653 0 0 1 33.134729 6.164893 18.218451 18.218451 0 0 1-0.56501 4.344303c-10.97376-3.201726-21.834519-6.742459-32.569719-10.509196z m314.848987 10.509196a18.218451 18.218451 0 0 1-0.56501-4.344303 17.138653 17.138653 0 0 1 33.134729-6.164893c-10.7352 3.766737-21.595959 7.30747-32.569719 10.509196z m-298.827799-124.30232a17.151209 17.151209 0 1 1 17.138653-17.138653 17.113542 17.113542 0 0 1-17.138653 17.138653z m315.426553 0A17.151209 17.151209 0 1 1 686.801707 862.858993a17.126097 17.126097 0 0 1-17.138653 17.138653z m-315.451665 34.252195a17.151209 17.151209 0 1 1 17.138653-17.151209 17.113542 17.113542 0 0 1-17.138653 17.151209z m315.426554 0A17.151209 17.151209 0 1 1 686.801707 897.136299a17.126097 17.126097 0 0 1-17.138653 17.151209z m-315.426554 34.277306a17.138653 17.138653 0 1 1 17.138653-17.138653 17.100986 17.100986 0 0 1-17.138653 17.138653z m315.426554 0A17.138653 17.138653 0 1 1 686.801707 931.426161a17.113542 17.113542 0 0 1-17.138653 17.138653z m-315.426554 34.289863a17.151209 17.151209 0 1 1 17.138653-17.138654 17.113542 17.113542 0 0 1-17.138653 17.138654z m315.426554 0A17.151209 17.151209 0 1 1 686.801707 965.716023a17.126097 17.126097 0 0 1-17.138653 17.138654z m0 0" fill="#C39F86" p-id="23510"></path><path d="M283.660405 529.603217c-5.373878-145.144931 110.490951-256.464564 228.226593-256.464564 117.132964 0 233.261465 113.002109 228.515376 254.518417 6.981019-4.118299 13.610476-5.48688 19.436363-3.427731 18.620236 6.855461 21.256952 46.97121 5.712884 89.598117s-43.317475 71.768895-61.950267 65.026436a7.78459 7.78459 0 0 1-0.904017-0.339007C660.434548 772.796312 589.481779 838.726764 512 838.726764c-78.059346 0-150.054245-65.290107-192.103585-160.915003-0.678013 0.339006-1.481583 0.690568-2.285154 1.029575-18.632792 6.855461-46.393644-22.286527-61.937712-65.026436s-13.03291-82.868213 5.712885-89.598116c6.516455-2.285154 14.288489-0.226004 22.286527 5.373878z m0 0" fill="#FCE9E9" p-id="23511"></path><path d="M494.861347 472.210702a17.138653 17.138653 0 1 0 8.625827-14.840944 17.138653 17.138653 0 0 0-8.563048 14.840944z m0 0" fill="#D16279" p-id="23512"></path><path d="M626.973368 584.999362a11.739664 11.739664 0 0 1-2.975722 1.632253c-4.796312 1.757811-11.300211 1.004463-14.401491-1.632253l-24.107117-20.214821a4.093188 4.093188 0 0 1-1.720143-3.126392c0-3.138947 4.68331-5.712884 10.396194-5.712884h48.239345a16.724312 16.724312 0 0 1 5.712884 0.941684c4.796312 1.757811 6.164893 5.273432 2.963167 7.897592z m-210.284369 0a11.739664 11.739664 0 0 1-2.975722 1.632253c-4.796312 1.757811-11.300211 1.004463-14.401491-1.632253l-24.119673-20.214821a4.068076 4.068076 0 0 1-1.707587-3.126392c0-3.138947 4.68331-5.712884 10.396194-5.712884h48.239345a16.724312 16.724312 0 0 1 5.712884 0.941684c4.796312 1.757811 6.164893 5.273432 2.963167 7.897592z m0 0" fill="#262626" p-id="23513"></path><path d="M511.824219 758.281819c19.888371 0 36.010005-6.491343 36.010005-14.489382H475.864437c0 7.998038 16.083967 14.489382 35.959782 14.489382z" fill="#D16279" p-id="23514"></path><path d="M519.520918 595.420668v91.657266l19.248026-4.783756-19.248026-86.87351zM269.798813 550.847614c5.499436-7.671588 22.600422 12.55579 22.600422 26.367159s-5.022316 32.645054 0 37.03958 12.015891 30.133896 18.833685 35.156212c0 0-19.197803-1.883368-31.766149-17.578106s-28.526755-54.617686-9.667958-80.984845zM757.465692 546.992986c-5.499436-7.684143-22.600422 12.55579-22.600422 26.367159s5.022316 32.645054 0 37.03958-12.028447 30.133896-18.833684 35.156212c0 0 19.197803-1.883368 31.766148-17.578106s28.526755-54.617686 9.667958-80.984845z" fill="#F2B2B1" p-id="23515"></path><path d="M741.708176 969.708765A486.754073 486.754073 0 0 1 700.613076 988.140664V465.141792h41.132767zM323.424592 988.140664c-14.049929-5.599882-27.773407-11.777331-41.145324-18.406788V465.141792h41.145324z m0 0" fill="#E5D6C6" p-id="23516"></path><path d="M275.084801 230.624749l46.858207-125.482564 89.711119 22.851537 100.345873-91.418706 100.119869 91.192702 88.907548-22.600422 46.97121 125.708568 46.97121-11.425768 25.601255 114.257688-83.320221 163.426161-50.850949-81.700525-2.511158 7.420472-104.577174-34.277307h-135.602531l-104.577174 34.277307-2.172152-6.277895-50.16038 80.557948L203.403796 333.707784l25.601256-114.257688z m0 0" fill="#B56B6B" p-id="23517"></path><path d="M447.777135 141.365638l26.166266 212.921085H549.943597l26.166266-212.921085-64.109863-58.396978z m-36.123008-13.371916l100.345873-91.418706 100.345873 91.418706-32.004709 260.582863H443.658836z m0 0" fill="#C39F86" p-id="23518"></path><path d="M435.7738 136.85811l28.112413 228.804159h96.227574L588.2262 136.85811l-76.2262-69.320516z m-24.119673-8.914611l100.345873-91.418706 100.345873 91.418706-32.004709 260.633086H443.658836z m0 0" fill="#B56B6B" p-id="23519"></path><path d="M642.517436 155.428123l-25.714258 209.367796 45.477071 14.8535 49.494924-148.158321-32.004709-85.429594z m-31.201138-27.434401l89.711119-22.851537 46.97121 125.708568-64.109863 192.003139-104.690177-34.277307z m0 0" fill="#C39F86" p-id="23520"></path><path d="M604.222277 372.680955l65.151993 21.344843 54.27868-162.735592L686.801707 132.338025l-54.617686 13.949483z m7.094021-244.687233l89.711119-22.851537 46.97121 125.708568-64.109863 192.003139-104.690177-34.277307z m0 0" fill="#B56B6B" p-id="23521"></path><path d="M380.440434 155.428123l-37.140027-9.492177L311.383589 231.428319l49.482368 148.158321 45.489627-14.8535z m31.201137-27.434401l32.004709 260.582863-104.639953 34.277307-64.147531-192.003139 46.97121-125.708568z m0 0" fill="#C39F86" p-id="23522"></path><path d="M418.735593 372.680955l-27.873854-226.393447-54.630242-13.949483-36.914022 98.977292 54.27868 162.735593z m-7.081466-244.687233l32.004709 260.582863-104.652509 34.277307-64.147531-192.003139 46.97121-125.708568z m0 0" fill="#B56B6B" p-id="23523"></path><path d="M721.719358 407.309824l12.55579 20.089264 50.047379-98.286723-13.472363-60.267792z m26.279269-176.459071l46.97121-11.425769 25.601255 114.257688-83.320221 163.451273-53.362107-85.705822z m0 0" fill="#C39F86" p-id="23524"></path><path d="M777.718181 247.085389l-12.354897 2.975722-56.224827 158.516848 26.178822 42.04934 61.134141-119.995684z m-29.719554-16.234636l46.97121-11.425769 25.601255 114.257688-83.320221 163.451273-53.362107-85.705822z m0 0" fill="#B56B6B" p-id="23525"></path><path d="M253.13728 268.806906l-13.597921 60.267791 50.059935 98.286723 12.55579-20.089263z m22.864093-37.956153l64.109863 180.57737-53.362107 85.705822L203.403796 333.707784l25.601256-114.257688z m0 0" fill="#C39F86" p-id="23526"></path><path d="M246.281819 247.085389l-18.733239 83.546226 61.134141 119.995684 26.178822-42.04934L258.649272 250.061111z m29.719554-16.234636l64.109863 180.57737-53.362107 85.705822L203.403796 333.707784l25.601256-114.257688z m0 0" fill="#B56B6B" p-id="23527"></path><path d="M663.196822 271.770072c-19.536809-3.766737-30.397567-26.517828-25.714258-50.223159s23.2031-40.567757 42.626907-36.801021 30.410123 26.517828 25.714257 50.22316-23.077542 40.693315-42.626906 36.80102z m3.088724-15.996076c9.492177 1.82059 20.453382-8.3496 23.542106-23.856001s-3.427731-29.141988-12.79435-30.975134-20.465938 8.3496-23.542106 23.856001 3.427731 29.141988 12.79435 30.975134z m-306.624945 15.996076c-19.549365 3.766737-38.056599-13.258914-42.626906-36.80102s6.277895-46.280642 25.714257-50.22316 38.056599 13.258914 42.626907 36.801021-6.177449 46.393644-25.714258 50.223159zM356.584433 255.773996c9.479621-1.833145 15.883074-15.431066 12.79435-30.975134S355.328854 199.084604 345.824121 200.892638s-15.883074 15.431066-12.79435 30.975134 14.175487 25.714258 23.542106 23.856001z m395.884055 102.618471c-9.492177-4.457305-10.283192-19.423807-3.766737-33.360734S767.158762 301.941635 776.688607 306.361273s10.283192 19.423807 3.766737 33.37329-18.51979 23.090098-27.999412 18.620236z m4.118299-8.789053c3.076169 1.481583 10.396194-4.118299 14.966502-13.811369s4.118299-18.971799 0.916572-20.453382-10.396194 4.118299-14.966501 13.811369-4.005297 18.971799-0.916573 20.465937z m-485.030163 8.789053c-9.479621 4.469861-21.482956-4.570308-27.999412-18.620237s-5.712884-28.878317 3.766737-33.373289 21.495512 4.570308 27.999412 18.632792 5.712884 28.878317-3.766737 33.360734z m-4.118299-8.789053c3.088724-1.494139 3.540733-10.634754-0.904017-20.465938s-11.890333-15.318064-14.979058-13.811369-3.540733 10.622198 0.916573 20.453382 11.890333 15.205062 14.966502 13.811369zM512 228.515376c-27.082839 0-48.804355-23.190544-48.804355-51.41596s21.721517-51.478739 48.804355-51.478738 48.804355 23.190544 48.804355 51.478738S539.082839 228.515376 512 228.515376z m0-22.851538c14.175487 0 25.940262-12.55579 25.940262-28.564422s-11.764775-28.576978-25.940262-28.576977-25.940262 12.55579-25.940262 28.576977 11.764775 28.564422 25.940262 28.564422z m0 0" fill="#E5D6C6" p-id="23528"></path><path d="M502.231595 214.628672a23.014763 23.014763 0 0 1-11.53877-20.340379c0-12.55579 9.592623-22.864093 21.344842-22.864094s21.344843 10.295748 21.344843 22.864094a23.29099 23.29099 0 0 1-11.538771 20.340379c11.199765 15.066948 27.534847 42.965913 27.534847 58.509981 0 22.060523-16.686645 40.002747-37.36603 40.002747S474.608858 295.199176 474.608858 273.138653c0-15.544068 16.322527-43.430477 27.534847-58.509981z m155.892688 45.200844c-4.005297-4.331748-5.825887-11.651773-4.344304-19.310805 2.172152-11.199765 10.622198-18.971799 18.833685-17.377213s13.258914 12.003335 11.099318 23.2031c-1.494139 7.659032-5.951444 13.723478-11.30021 16.234636 5.260876 14.966502 11.664329 41.434107 9.040168 55.08225-3.766737 19.536809-18.632792 33.147285-33.147285 30.397567s-23.090098-20.90539-19.323361-40.567757c2.86272-13.59792 18.745794-35.658443 29.154544-47.712001z m-293.265585 0c10.521752 12.003335 26.367159 34.063858 29.028987 47.712001 3.766737 19.536809-4.796312 37.66737-19.310805 40.567758S345.284222 337.374074 341.366815 317.661484c-2.62416-13.59792 3.766737-40.115749 9.027613-55.08225-5.361322-2.511158-9.705626-8.575604-11.300211-16.234636-2.172152-11.199765 2.749718-21.595959 11.086763-23.2031s16.686645 6.177449 18.833685 17.377213c1.594585 7.772034-0.226004 14.979057-4.231301 19.310805zM752.091814 351.084997c-1.029575-3.088724-0.577566-7.772034 1.594586-12.455344 3.201726-6.855461 8.688607-10.97376 12.342341-9.266173s4.005297 8.575604 0.803571 15.431066c-2.172152 4.695865-5.48688 8.123596-8.462603 9.266173-0.339006 9.831183-2.398156 26.856835-6.277895 35.080877-5.599882 11.890333-15.205062 19.197803-21.482956 16.22208s-6.981019-14.966502-1.381137-26.856834c3.766737-8.337044 15.544068-20.90539 22.864093-27.421845z m-480.233851 0c7.207023 6.629457 18.971799 19.084801 22.864093 27.421845 5.599882 11.890333 4.909314 24.00667-1.381137 26.856834s-15.996076-4.331748-21.482956-16.22208c-3.879739-8.3496-5.825887-25.375251-6.277895-35.080877-2.975722-1.142577-6.277895-4.570308-8.462603-9.266173-3.201726-6.855461-2.86272-13.710923 0.803571-15.431066s9.140615 2.511158 12.342341 9.266173c2.172152 4.68331 2.62416 9.366619 1.594586 12.455344z m0 0" fill="#C39F86" p-id="23529"></path><path d="M741.030163 511.083427c-39.538182-61.52337-127.202707-104.213056-229.030163-104.213056s-189.491981 42.689686-229.030163 104.338614l-0.113002-0.56501-0.226005 1.933591q-3.766737-3.766737-7.207023-7.885036c-28.790426-34.277306-36.336456-79.101476-23.542106-116.906959a114.458581 114.458581 0 0 1 33.712296-0.113002c5.022316-34.289862 22.977095-67.663152 50.524498-95.197999a184.771004 184.771004 0 0 1 71.768895 20.90539c24.107117-25.249693 60.343126-46.280642 104.338614-60.682133 43.769484 14.288489 80.005493 35.306881 104.11261 60.456129 21.030948-11.425769 45.489627-18.507234 71.568002-20.792388 27.547403 27.534847 45.376625 61.021139 50.511943 95.197998a115.32493 115.32493 0 0 1 33.837854 0.113003c12.79435 37.931041 5.24832 82.617097-23.554662 116.906959a112.750993 112.750993 0 0 1-7.194468 7.885036z m0 0" fill="#B56B6B" p-id="23530"></path><path d="M303.774781 485.030163a179.120899 179.120899 0 0 0-20.804944 26.166266l-0.803571 0.916573q-3.590956-3.603512-6.855461-7.533474c-28.790426-34.289862-36.336456-79.101476-23.542106-116.906959a114.533915 114.533915 0 0 1 33.724851-0.113003c5.022316-34.289862 22.96454-67.663152 50.511943-95.197998a184.771004 184.771004 0 0 1 71.768895 20.90539c24.107117-25.262249 60.343126-46.280642 104.338614-60.682133 43.769484 14.275933 80.005493 35.319437 104.11261 60.456128 21.030948-11.425769 45.489627-18.51979 71.568002-20.804943 27.547403 27.547403 45.376625 61.033695 50.511943 95.210554a115.32493 115.32493 0 0 1 33.900633 0.113002c12.79435 37.931041 5.24832 82.617097-23.542106 116.90696-2.285154 2.749718-4.582863 5.260876-6.968464 7.772034l-0.351562-1.142577a167.280789 167.280789 0 0 0-20.90539-26.279268c0.678013-0.803571 1.368581-1.607141 2.046594-2.285154 14.966502-17.829222 22.286527-39.776742 20.917946-61.033695l-33.825298 4.909314-5.022316-33.825298c-3.201726-21.947521-13.59792-44.10849-29.820001-63.883859a144.266026 144.266026 0 0 0-41.948894 14.514494l-22.96454 12.455343-18.067782-18.833685C573.598705 317.937712 546.17686 301.251067 512.276227 288.783167c-33.900633 12.455344-61.52337 29.141988-79.540929 48.113787l-18.055225 18.971799-22.977096-12.455344a142.985335 142.985335 0 0 0-42.162342-14.627495c-16.234636 19.775369-26.517828 41.948894-29.832557 63.883859l-5.022316 33.712296c-22.751091-3.201726-34.17686-4.909314-34.289862-4.909314a90.401687 90.401687 0 0 0 21.482956 61.146697 25.689146 25.689146 0 0 0 1.946148 2.398156z m0 0" fill="#C39F86" p-id="23531"></path><path d="M296.002747 493.442543a194.200402 194.200402 0 0 0-13.145912 17.578105l-0.791015 0.916573q-3.616067-3.590956-6.868017-7.533474c-28.802982-34.289862-36.336456-79.101476-23.542106-116.90696a114.458581 114.458581 0 0 1 33.712296-0.113002c5.022316-34.289862 22.977095-67.663152 50.524498-95.210554a184.78356 184.78356 0 0 1 71.768895 20.917946c24.107117-25.249693 60.33057-46.293197 104.338614-60.682133 43.769484 14.275933 80.005493 35.306881 104.11261 60.456128 21.030948-11.425769 45.489627-18.51979 71.568002-20.804943 27.547403 27.547403 45.376625 61.033695 50.511943 95.197998a115.751827 115.751827 0 0 1 33.900633 0.125558c12.79435 37.931041 5.24832 82.617097-23.554662 116.90696a143.751238 143.751238 0 0 1-6.968464 7.772034l-0.339006-1.142577a151.749277 151.749277 0 0 0-13.258914-17.829222c1.029575-1.142577 2.05915-2.285154 3.088724-3.540732 19.536809-23.316102 27.534847-53.035656 22.96454-80.683506a91.833047 91.833047 0 0 0-12.455344 0.916573l-22.600422 3.302172-3.289616-22.600422c-3.879739-26.053264-16.573643-51.993526-36.575016-74.506057a158.855854 158.855854 0 0 0-51.880524 16.799647l-15.318064 8.224043-11.990779-12.55579c-20.089264-20.917946-50.398941-39.086174-87.664525-52.232086-37.366031 13.145912-67.650596 31.31414-87.777527 52.345088l-12.103782 12.55579-15.318063-8.337045a156.646035 156.646035 0 0 0-52.119084-16.912649c-19.988817 22.499975-32.795723 48.565795-36.56246 74.506057l-3.314729 22.512532-22.550199-3.164059a88.894992 88.894992 0 0 0-12.342341-0.916573c-4.570308 27.622738 3.427731 57.367404 22.96454 80.683506a15.066948 15.066948 0 0 0 2.86272 3.992741z m0 0" fill="#B56B6B" p-id="23532"></path><path d="M490.278483 344.568542a22.299083 22.299083 0 1 0 11.149542-19.298249 22.299083 22.299083 0 0 0-11.149542 19.298249z m0 0" fill="#E5D6C6" p-id="23533"></path><path d="M568.03649 510.405415s2.599049 9.429398 15.732405 10.25808 66.545686 0 66.545686 0M464.652116 510.405415s-2.599049 9.404287-15.732404 10.25808-66.545686 0-66.545687 0" fill="#F2B2B1" p-id="23534"></path></svg>