<svg t="1713594440546" class="icon" viewBox="0 0 1343 1024" version="1.1" xmlns="http://www.w3.org/2000/svg" p-id="13301" width="200" height="200"><path d="M933.33468 134.452243c0.005386 0 0.005386 0 0 0-37.27005 28.361861-62.94976 42.677438-78.482538 43.754607-10.847092 0.754018-20.32618-5.310443-40.74392-19.092822-10.760919-7.270891-22.954473-15.495077-38.174872-24.010098-86.340486-48.300261-173.171085-21.699571-249.779348 1.766557-67.969368 20.821678-148.288479 11.525709-149.090971 11.428764 0.565514 0.06463 1.109484 0.145418 1.664226 0.247749-8.304973-1.470336-63.057477-2.989144-122.985778 25.211142C198.4684 200.719684 122.501052 261.498948 85.850374 397.943954c-69.170412 257.524194 16.868468 438.246234 132.825718 503.129512 121.154591 67.797021 248.739881 86.480518 359.257426 52.608937l55.727342-15.608179c103.930657-27.898679 233.271733-62.59968 291.611209-184.497518 18.516536-38.681141 32.999074-56.551376 45.790457-72.310359 33.672305-41.50871 48.855003-67.080704 56.109737-238.393672 5.283514-125.215518 39.806783-195.075318 70.349912-218.697635 7.863334-6.080619 13.319195-7.394766 15.554321-7.529412 0.010772 0.026929 0.010772 0.010772 0.016157 0.043087 4.712615 14.42868 7.270891 26.304469 9.527561 36.790709 4.254818 19.776824 8.272658 38.44955 26.282925 49.02735 15.915173 9.344442 33.015232 5.757469 44.487082 2.245898 33.516115-10.265421 77.830851-60.30531 86.970631-111.91248 7.044686-39.720609-6.926197-75.105613-39.327443-99.627367-84.363881-63.854582-187.879828-49.980645-307.698729 41.239418z" fill="#ffac48" p-id="13302"></path><path d="M465.304721 1010.551544c-87.460742 0-179.569469-25.674325-266.367752-74.238492C69.326601 863.787259-27.974081 665.949003 46.829925 387.452327c40.663132-151.390726 126.69124-219.65093 191.698393-250.247917 56.998401-26.82151 108.562484-29.719095 128.086173-29.719095 5.854414 0 10.906337 0.236977 15.080367 0.705546v-0.021543 0.021543l0.06463 0.005386v-0.021544c0.161575 0.016158 16.583018 1.874274 40.10839 1.874275 24.586384 0 60.59076-2.046621 92.448035-11.805773 46.749137-14.320963 99.74047-30.553901 155.904065-30.553901 45.720441 0 86.744425 10.518556 125.425566 32.158882 16.755365 9.376757 30.236136 18.478835 41.067071 25.792814 5.121939 3.457713 13.006816 8.778928 17.670958 11.423378 6.042918-2.251283 21.688799-9.802238 54.483211-34.760246 77.448456-58.958849 150.99756-88.861062 218.589919-88.861062 49.845998 0 96.250442 15.995961 137.926113 47.540857 44.460153 33.650762 64.403938 84.272322 54.720188 138.890179-10.99251 62.05571-63.617605 127.768409-114.917781 143.478919-7.701759 2.359-19.545233 5.482791-33.580746 5.482791-15.640495 0-30.171506-3.872423-43.189094-11.520323-17.051586-10.012286-27.268535-23.697719-33.817722-37.657831-12.624421 30.683161-24.257847 77.776992-27.090802 144.906169-7.421695 175.363124-23.746192 211.162838-65.098713 262.134478-11.918876 14.692586-24.24169 29.864512-40.727762 64.301607-66.348229 138.637045-211.523689 177.603635-317.527897 206.057056l-54.88715 15.376589c-39.397459 12.026593-81.100059 18.117984-123.960616 18.117983zM366.614491 188.272995c-10.997896 0-50.249937 1.588824-93.686779 22.028107-49.539005 23.32071-115.445595 76.624421-148.078432 198.112935-63.531431 236.535555 11.245645 400.162922 113.539006 457.403686 74.766305 41.842632 153.232685 63.951527 226.916435 63.951527 35.007995 0 68.917277-4.949592 100.779938-14.714129l0.942523-0.274678 55.727341-15.60818c101.383152-27.220062 215.756964-57.919381 266.071531-163.034924 20.606244-43.059833 37.377767-63.725322 50.858537-80.329883 26.708407-32.923672 40.119162-49.458218 47.115375-214.64748 5.057309-119.840444 36.402929-210.581166 85.990407-248.939156 15.748212-12.177396 29.223597-15.365817 37.760161-15.899016l29.105109-1.81503 9.349827 23.261466 2.536733 3.829336 0.915594 5.612051c4.74493 15.03728 7.437852 27.559371 9.629891 37.74939 1.911975 8.913574 4.540268 21.107128 7.249348 22.695952 0.199276 0.118489 0.673231 0.393167 2.278213 0.393167 3.586973 0 8.369604-1.459564 9.94227-1.938904 16.620719-5.089624 52.161912-41.648742 59.012707-80.329883 4.378692-24.726416-3.667761-45.036439-23.92931-60.375326-27.710174-20.972482-56.879912-31.167887-89.173441-31.167887-49.50669 0-106.591265 24.344021-169.659514 72.358832-45.575023 34.679458-75.520323 50.201464-100.15518 51.914163-1.534966 0.107717-3.05916 0.161575-4.577968 0.161575-22.949087 0-39.989902-11.504166-61.570984-26.072877-10.082302-6.813094-21.500295-14.525625-35.29883-22.238156-26.309854-14.719515-54.434739-21.877304-85.985021-21.877303-44.072372 0-88.893377 13.733906-132.244046 27.010014-33.252209 10.190019-72.315745 15.355045-116.108054 15.355045-27.720946 0-47.250021-2.16511-49.382815-2.407473l-0.274678-0.037701 0.161575 0.021544 1.389548-11.865018-0.447025 2.509804 0.123874-1.055625-1.847345 10.29235 0.070016 0.010772c0.28545 0.048473 0.646301 0.113103 1.082555 0.166961a67.969368 67.969368 0 0 0-6.129092-0.210048z m7.394766-13.09299l-1.524194 13.24918 1.551123-13.416141-0.026929 0.166961z" fill="#FFFFFF" p-id="13303"></path><path d="M1138.97164 143.376588c-85.516452-47.84785-334.854161 201.021291-333.917024 284.033325 0.926365 83.01742 25.862829 189.759488-80.399899 185.289237-106.2735-4.45948-233.918034-20.891694-230.239502 70.53303 3.683918 91.424724-112.655727 136.326517-199.38938 98.113945-86.728267-38.22873 26.239838-146.872002-61.097029-120.109737-87.326096 26.751494-141.216864-60.030632-141.216865-60.030632 0.161575 0.705546 5.585122-19.889927 0 0 7.077001 136.85433 67.721619 232.000673 140.947573 272.965413 104.221493 58.317933 223.991921 84.099975 335.144997 50.050661 111.158462-34.060086 266.286965-53.815366 328.536564-183.948162 62.271144-130.143566 88.414037-50.217622 98.900278-298.68821 10.497013-248.449045 128.22082-289.144492 146.080283-234.456618 13.335353 40.781621 11.337204 64.344694 23.460742 69.428932 79.274257 32.487419 46.285955-92.28646-26.810738-133.181184z" fill="#FFFFFF" opacity=".3" p-id="13304"></path><path d="M373.314483 352.681309a32.315072 32.315072 0 0 1-31.884204-37.808634C370.239165 147.78221 493.752756 109.790457 498.998569 108.255491a32.315072 32.315072 0 0 1 18.398048 61.958765c-4.244046 1.341075-90.638391 30.149962-112.278717 155.645544a32.320458 32.320458 0 0 1-31.803417 26.821509z" fill="#FFFFFF" p-id="13305"></path><path d="M1115.898679 490.462005a40.404612 40.404612 0 0 1-39.731381-33.38147c-14.552554-82.457292-50.325339-227.928974-126.389632-275.739123-27.510898-17.293949-48.413364-13.432298-48.607254-13.383826a40.399226 40.399226 0 0 1-21.850375-77.782378c5.461247-1.540352 55.064883-13.933182 113.447446 22.765968 78.14323 49.118909 132.965749 160.180426 162.954136 330.103846a40.39384 40.39384 0 0 1-39.82294 47.416983z" fill="#4caf50" p-id="13306"></path></svg>