<svg t="1711682016149" class="icon" viewBox="0 0 1025 1024" version="1.1" xmlns="http://www.w3.org/2000/svg" p-id="3035" id="mx_n_1711682016149" width="200" height="200"><path d="M950.467 562.481l74.354-34.503-250.596-18.266V326.708h37.887l0.677-28.752h-15.561l0.677-12.855h14.207l73.066-62.241h-91.333l-64.949-59.536v-55.477L700.481 140.32H324.334l-28.415-32.474v55.477l-64.948 59.536h-91.333l73.066 62.241h14.208l0.676 12.855h-15.561l0.677 28.752h37.886v183.005L-0.004 527.979l74.354 34.503-51.079 4.397 68.331 33.489-48.035 3.721 86.711 42.985 22.211 0.989-1.014 233.748h-47.358l-1.014 35.856H921.712l-1.016-35.856h-47.357l-1.014-233.748 22.212-0.989 86.711-42.985-48.034-3.721 68.33-33.489-51.077-4.398zM250.418 881.133h-56.533V648.4h56.533v232.733z m215.31-520.263h33.827v49.388h-33.827V360.87z m0 65.963h33.827v49.388h-33.827v-49.388z m-50.994-65.963h33.827v49.388h-33.827V360.87z m-86.894 436.032h-33.827v-49.388h33.827v49.388z m0-65.963h-33.827V681.55h33.827v49.389z m8.584-254.719h-33.827v-49.388h33.827v49.388z m0-65.963h-33.827V360.87h33.827v49.387z m42.41 386.645h-33.827v-49.388h33.827v49.388z m0-65.963h-33.827V681.55h33.827v49.389z m8.838-254.719h-33.828v-49.388h33.828v49.388z m0-65.963h-33.828V360.87h33.828v49.387z m27.062 16.576h33.827v49.388h-33.827v-49.388z m90.323 448.89h-59.921V680.537h59.921v195.186zM688.393 360.87h33.826v49.388h-33.826V360.87z m-51.249 0h33.827v49.388h-33.827V360.87z m-111.882 0h33.826v49.388h-33.826V360.87z m0 65.963h33.826v49.388h-33.826v-49.388z m54.419 448.89h-59.921V680.537h59.921v195.186z m30.401-399.503h-33.826v-49.388h33.826v49.388z m0-65.963h-33.826V360.87h33.826v49.387z m27.062 16.576h33.827v49.388h-33.827v-49.388z m42.665 370.069h-33.826v-49.388h33.826v49.388z m0-65.963h-33.826V681.55h33.826v49.389z m8.584-304.106h33.826v49.388h-33.826v-49.388z m42.41 370.069h-33.826v-49.388h33.826v49.388z m0-65.963h-33.826V681.55h33.826v49.389z m100.13 150.194h-56.534V648.4h56.534v232.733z" fill="#bfbfbf" p-id="3036"></path></svg>