<svg t="1710902721131" class="icon" viewBox="0 0 1024 1024" version="1.1" xmlns="http://www.w3.org/2000/svg" p-id="9600" width="200" height="200"><path d="M217.9 462.9h589.3v333.9H217.9V462.9z" fill="#008A77" p-id="9601" data-spm-anchor-id="a313x.search_index.0.i18.3c3c3a81ef7Oja" class="selected"></path><path d="M807.2 811.3H217.9c-8 0-14.5-6.5-14.5-14.5V462.9c0-8 6.5-14.5 14.5-14.5h589.3c8 0 14.5 6.5 14.5 14.5v333.9c0 8-6.5 14.5-14.5 14.5z m-574.8-29h560.3V477.4H232.4v304.9z" fill="#0C6175" p-id="9602"></path><path d="M640.2 531.6c43.4 0 78.6 35.2 78.6 78.6 0 43.4-35.2 78.6-78.6 78.6-43.4 0-78.6-35.2-78.6-78.6 0-43.4 35.2-78.6 78.6-78.6z" fill="#FFF4B8" p-id="9603"></path><path d="M640.2 703.3c-51.3 0-93.1-41.8-93.1-93.1s41.8-93.1 93.1-93.1 93.1 41.8 93.1 93.1-41.8 93.1-93.1 93.1z m0-157.1c-35.3 0-64.1 28.7-64.1 64.1 0 35.3 28.7 64.1 64.1 64.1 35.3 0 64.1-28.7 64.1-64.1s-28.8-64.1-64.1-64.1z" fill="#0C6175" p-id="9604"></path><path d="M316.1 207.5H709l29.5 88.4H286.6l29.5-88.4z" fill="#1BB8A2" p-id="9605"></path><path d="M738.4 310.4H286.6c-4.7 0-9-2.2-11.8-6-2.7-3.8-3.5-8.7-2-13.1l29.5-88.4c2-5.9 7.5-9.9 13.8-9.9H709c6.2 0 11.8 4 13.8 9.9l29.5 88.4c1.5 4.4 0.7 9.3-2 13.1-2.8 3.8-7.2 6-11.9 6z m-431.6-29h411.5L698.5 222H326.6l-19.8 59.4z" fill="#0C6175" p-id="9606"></path><path d="M267 266.5h491.1l29.5 58.9s120.8 108.4 157.1 68.8c12.8 100.1-117.9 98.2-117.9 98.2H198.2S60.7 481.5 80.3 394.2c41.2 27.1 157.1-68.8 157.1-68.8l29.6-58.9z" fill="#1BB8A2" p-id="9607"></path><path d="M827.5 506.9H197.1c-3.5-0.3-85.4-7.2-118.9-52.7-13.3-18.1-17.4-39.3-12-63.2 1-4.7 4.3-8.5 8.7-10.3 4.4-1.8 9.4-1.3 13.4 1.3 4.2 2.8 22.5 9.3 78.5-24.5 27.4-16.5 51.6-35.5 59-41.4L254 260c2.5-4.9 7.5-8 13-8h491.1c5.5 0 10.5 3.1 13 8l28.2 56.4c7.2 6.3 32.9 28.1 61.3 46.2 36.4 23.2 64.5 31.5 73.5 21.8 3.8-4.2 9.7-5.7 15.1-4 5.4 1.7 9.3 6.4 10 12 3.8 29.6-3.1 54.3-20.3 73.7-35.5 39.4-102.5 40.8-111.4 40.8z m-628.7-29.1H827c0.6 0 62 0.4 90.1-31.2 7.4-8.4 11.9-18.2 13.4-29.8-8 1.2-17.7 0.7-29.6-2.7-15.9-4.4-34.8-13.6-56.2-27.2-35.3-22.5-65.6-49.5-66.8-50.7-1.4-1.2-2.5-2.7-3.3-4.3L749.1 281H276l-25.5 50.9c-0.9 1.8-2.2 3.4-3.7 4.7-1.2 1-30.2 24.9-64.9 45.8-37.7 22.7-67 33-88.9 30.9 0.5 8.7 3.3 16.6 8.5 23.6 21.1 28.6 76.9 39.2 97.3 40.9z m38.7-152.4z" fill="#0C6175" p-id="9608"></path><path d="M178.6 767.4h658.1c21.7 0 39.3 17.6 39.3 39.3S858.4 846 836.7 846H178.6c-21.7 0-39.3-17.6-39.3-39.3s17.6-39.3 39.3-39.3z" fill="#008A77" p-id="9609"></path><path d="M836.6 860.5h-658c-29.7 0-53.8-24.1-53.8-53.8s24.1-53.8 53.8-53.8h658.1c29.7 0 53.8 24.1 53.8 53.8s-24.2 53.8-53.9 53.8z m-658-78.6c-13.7 0-24.8 11.1-24.8 24.8s11.1 24.8 24.8 24.8h658.1c13.7 0 24.8-11.1 24.8-24.8s-11.1-24.8-24.8-24.8H178.6z" fill="#0C6175" p-id="9610"></path><path d="M767.9 178.1c0 46.4-58.9 39.3-58.9 39.3H316.1s-58.9 7.1-58.9-39.3" fill="#FFFFFF" p-id="9611"></path><path d="M717.4 232.3c-4.3 0-7.5-0.3-9.2-0.4H316.9c-6.7 0.7-37.9 2.7-58-15.2-10.6-9.4-16.2-22.8-16.2-38.6 0-8 6.5-14.5 14.5-14.5s14.5 6.5 14.5 14.5c0 10 3.7 14.4 6.4 16.9 9.9 8.8 29.6 8.8 36.3 8 0.5-0.1 1.1-0.1 1.7-0.1H709c0.6 0 1.2 0 1.7 0.1 6.7 0.8 26.4 0.8 36.3-8 2.8-2.5 6.4-6.9 6.4-16.9 0-8 6.5-14.5 14.5-14.5s14.5 6.5 14.5 14.5c0 15.9-5.6 29.2-16.2 38.6-15.1 13.3-36.3 15.6-48.8 15.6z" fill="#0C6175" p-id="9612"></path><path d="M391.2 313c-9.9-1.7-19.4 4.5-21.2 13.7l-19.4 100.6c-1.8 9.3 4.8 18.1 14.7 19.8 9.9 1.7 19.4-4.5 21.2-13.7l19.4-100.6c1.8-9.3-4.8-18.1-14.7-19.8zM635.9 313.7c9.2-1.7 17.9 4.4 19.6 13.6l18 99.5c1.7 9.2-4.4 17.9-13.6 19.6-9.2 1.7-17.9-4.4-19.6-13.6l-18-99.5c-1.6-9.2 4.4-17.9 13.6-19.6zM513.1 312.6c9.3 0 16.9 7.5 16.9 16.9v101.1c0 9.3-7.5 16.9-16.9 16.9-9.3 0-16.9-7.5-16.9-16.9V329.5c0-9.3 7.5-16.9 16.9-16.9z" fill="#FFFFFF" p-id="9613"></path></svg>