<svg t="1713339535869" class="icon" viewBox="0 0 1024 1024" version="1.1" xmlns="http://www.w3.org/2000/svg" p-id="78548" width="200" height="200"><path d="M512 219c-204.3 0-370 165.7-370 370s165.7 370 370 370 370-165.7 370-370-165.6-370-370-370z m147.8 530.8c-12.5 12.5-32.8 12.5-45.3 0l-132-132c-8.8-5.7-14.6-15.6-14.6-26.8V397c0-17.7 14.3-32 32-32s32 14.3 32 32v179.7l127.8 127.8c12.6 12.5 12.6 32.8 0.1 45.3zM334.6 155.3l-187 144.1c-14 10.8-34.1 8.2-44.9-5.8-10.8-14-8.2-34.1 5.8-44.9l186.9-144.1c14-10.8 34.1-8.2 44.9 5.8 10.9 14.1 8.3 34.2-5.7 44.9zM688.5 155.3l186.9 144.1c14 10.8 34.1 8.2 44.9-5.8 10.8-14 8.2-34.1-5.8-44.9l-186.9-144c-14-10.8-34.1-8.2-44.9 5.8-10.8 14-8.2 34.1 5.8 44.8z" p-id="78549" fill="#ffac48"></path></svg>