<svg t="1710910355403" class="icon" viewBox="0 0 1024 1024" version="1.1" xmlns="http://www.w3.org/2000/svg" p-id="32662" id="mx_n_1710910355406" width="200" height="200"><path d="M512 628.67160531c149.71732012 0 272.32366606-122.60634596 272.32366606-272.32366606v-77.8260304C784.32366606 128.80458876 661.71732012 6.19824277 512 6.19824277s-272.32366606 122.60634596-272.32366606 272.32366608v77.8260304c0 149.71732012 122.60634596 272.32366606 272.32366606 272.32366606zM183.97070038 493.38649532c-39.5199773 47.34304448-63.52870072 108.1741358-63.52870072 174.26556543v77.8260304c0 144.59186233 114.10887643 263.6913161 256.81241221 271.91902467 70.94712644-54.62658979 136.76879518-120.58313893 195.17203806-195.30691852-162.39608418-45.58959841-296.87191138-164.82393262-388.45574955-328.70370198zM839.62465821 492.84697346c-17.39958043 49.23137103-38.03629215 98.46274206-62.04501555 147.15459122C703.80002634 789.98864575 606.82096944 917.72044954 497.56778988 1017.80175723h133.80142481c149.71732012 0 272.32366606-122.60634596 272.32366609-272.32366608v-77.8260304c-0.13488045-66.36119055-24.14360388-127.46204281-64.06822257-174.80508729z" fill="#008a77" p-id="32663"></path></svg>