<svg t="1712463578123" class="icon" viewBox="0 0 1712 1024" version="1.1" xmlns="http://www.w3.org/2000/svg" p-id="5830" width="200" height="200"><path d="M1536 1024H176.551724C79.448276 1024 0 944.551724 0 847.448276V176.551724C0 79.448276 79.448276 0 176.551724 0h1359.448276c97.103448 0 176.551724 79.448276 176.551724 176.551724v670.896552c0 97.103448-79.448276 176.551724-176.551724 176.551724z" fill="#fe951d" p-id="5831"></path><path d="M273.655172 799.77931l-12.35862-58.262069c21.186207 3.531034 38.841379 5.296552 52.965517 5.296552 12.358621 0 19.42069-8.827586 19.42069-24.717241v-135.944828c-33.544828 12.358621-54.731034 19.42069-63.558621 22.951724l-14.124138-56.496551c22.951724-5.296552 49.434483-14.124138 77.682759-22.951725v-134.17931h-65.324138V335.448276h65.324138v-111.227586h58.262069V335.448276h52.965517v58.262069h-52.965517v111.227586c17.655172-8.827586 37.075862-17.655172 58.262069-28.248276v58.262069c-15.889655 8.827586-35.310345 17.655172-58.262069 26.482759v174.786207c0 42.372414-19.42069 61.793103-58.262069 61.793103h-60.027587z m250.703449-397.241379v49.434483h88.275862v-229.517242h56.496551v229.517242h86.510345v-49.434483h-61.793103V353.103448h61.793103v-56.496551h-60.027586V247.172414h114.758621v254.234483h-141.24138v49.434482h137.710345V600.275862c-21.186207 42.372414-52.965517 77.682759-98.868965 109.462069 40.606897 15.889655 84.744828 30.013793 132.413793 38.841379l-22.951724 56.496552c-65.324138-14.124138-123.586207-35.310345-173.02069-60.027586-52.965517 24.717241-114.758621 44.137931-188.910345 61.793103l-30.013793-54.731034c63.558621-12.358621 118.289655-26.482759 160.662069-42.372414-40.606897-30.013793-70.62069-65.324138-93.572414-104.165517h-30.013793v-54.731035h146.537931v-49.434482h-143.006896V264.827586c33.544828-8.827586 65.324138-22.951724 95.337931-40.606896l33.544827 45.903448c-24.717241 12.358621-49.434483 22.951724-74.151724 31.77931v54.731035H582.62069v47.668965h-58.262069z m33.544827 201.268966c22.951724 30.013793 52.965517 54.731034 90.04138 77.682758 40.606897-22.951724 72.386207-47.668966 93.572413-77.682758H557.903448zM1105.213793 699.144828c-49.434483 37.075862-109.462069 68.855172-181.848276 93.572413l-24.717241-52.965517c68.855172-21.186207 125.351724-47.668966 171.255172-79.448276l35.310345 38.84138z m-164.193103-436.082759h208.331034v-45.903448h61.793104v45.903448h208.331034V317.793103H1211.144828v44.137931h240.110344v123.586207h-58.262069v-72.386207H1168.772414l28.248276 14.124138c-37.075862 28.248276-74.151724 52.965517-107.696552 70.62069 42.372414-1.765517 84.744828-3.531034 121.82069-5.296552 22.951724-15.889655 44.137931-30.013793 65.324138-45.903448l47.668965 31.77931c-65.324138 49.434483-137.710345 88.275862-217.158621 118.289656 49.434483-1.765517 118.289655-5.296552 208.331035-10.593104-15.889655-17.655172-28.248276-31.77931-37.075862-38.841379l44.137931-26.482759c44.137931 44.137931 79.448276 82.97931 104.165517 118.289655L1380.634483 670.896552c-12.358621-17.655172-22.951724-31.77931-31.779311-42.372414-42.372414 1.765517-86.510345 5.296552-134.17931 7.062069v111.227586c0 37.075862-19.42069 56.496552-60.027586 56.496552h-58.262069l-12.358621-56.496552c17.655172 1.765517 33.544828 3.531034 49.434483 3.531035 12.358621 0 19.42069-5.296552 19.42069-17.655173v-93.572414c-75.917241 3.531034-139.475862 5.296552-188.910345 7.062069l-10.593104-52.965517c17.655172 1.765517 35.310345 1.765517 51.2 1.765517 42.372414-12.358621 88.275862-31.77931 135.944828-56.496551l-127.117241 3.531034-10.593104-44.137931c8.827586-1.765517 17.655172-5.296552 28.248276-10.593103 35.310345-19.42069 68.855172-44.137931 102.4-72.386207h-164.193103v70.620689h-58.262069v-123.586207h240.110344V317.793103H941.02069v-54.731034z m337.213793 397.241379c65.324138 22.951724 125.351724 51.2 180.082758 86.510345L1426.537931 794.482759c-58.262069-38.841379-118.289655-68.855172-180.082759-90.04138l31.779311-44.137931z" fill="#FFFFFF" p-id="5832"></path></svg>