<svg t="1713599789449" class="icon" viewBox="0 0 1024 1024" version="1.1" xmlns="http://www.w3.org/2000/svg" p-id="24016" width="200" height="200"><path d="M510.539352 510.02383m-510.023829 0a510.02383 510.02383 0 1 0 1020.047659 0 510.02383 510.02383 0 1 0-1020.047659 0Z" fill="#EB662B" p-id="24017"></path><path d="M510.539352 863.500587c-194.867595 0-353.476758-158.609163-353.476758-353.476757 0-194.867595 158.609163-353.476758 353.476758-353.476758 15.122 0 27.494546 12.372546 27.494546 27.494546s-12.372546 27.494546-27.494546 27.494546c-164.623595 0-298.487666 133.864071-298.487665 298.487666 0 164.623595 133.864071 298.487666 298.487665 298.487665 164.623595 0 298.487666-133.864071 298.487666-298.487665 0-15.122 12.372546-27.494546 27.494546-27.494547s27.494546 12.372546 27.494546 27.494547c0 194.867595-158.609163 353.476758-353.476758 353.476757z" fill="#FFFFFF" p-id="24018"></path><path d="M477.545897 622.579627c-15.122 0-27.494546-12.372546-27.494546-27.494546v-135.58248c0-72.860547 59.285115-132.317503 132.317503-132.317503h151.048162c15.122 0 27.494546 12.372546 27.494546 27.494546s-12.372546 27.494546-27.494546 27.494546h-151.048162c-42.616546 0-77.328411 34.711864-77.328411 77.328411v135.58248c0 15.122-12.200705 27.494546-27.494546 27.494546z" fill="#FFFFFF" p-id="24019"></path><path d="M669.492197 446.09901c-7.045477 0-14.090955-2.749455-19.418023-8.076523-10.654137-10.654137-10.654137-28.18191 0-38.836046l63.924819-63.92482c10.654137-10.654137 28.18191-10.654137 38.836046 0 10.654137 10.654137 10.654137 28.18191 0 38.836046L688.91022 438.194328c-5.327068 5.327068-12.372546 7.904682-19.418023 7.904682z" fill="#FFFFFF" p-id="24020"></path><path d="M733.417016 382.17419c-7.045477 0-14.090955-2.749455-19.418023-8.076523L650.074174 310.172848c-10.654137-10.654137-10.654137-28.18191 0-38.836047s28.18191-10.654137 38.836046 0l63.924819 63.92482c10.654137 10.654137 10.654137 28.18191 0 38.836046-5.327068 5.327068-12.372546 8.076523-19.418023 8.076523z" fill="#FFFFFF" p-id="24021"></path></svg>