<svg t="1713259540801" class="icon" viewBox="0 0 1024 1024" version="1.1" xmlns="http://www.w3.org/2000/svg" p-id="46098" width="200" height="200"><path d="M512 25.6a486.4 486.4 0 1 0 486.4 486.4 486.4 486.4 0 0 0-486.4-486.4z m-30.3616 221.952h60.7232a19.456 19.456 0 0 1 19.4048 20.48l-15.36 388.352a11.0592 11.0592 0 0 1-10.9568 10.24h-46.8992a11.2128 11.2128 0 0 1-10.9568-10.24l-15.36-388.352a19.456 19.456 0 0 1 19.5072-20.48z m30.3616 583.68a51.2 51.2 0 1 1 50.6368-51.2 50.8928 50.8928 0 0 1-50.6368 51.2z m0 0" fill="#FFD815" p-id="46099"></path></svg>