<svg t="1711097114514" class="icon" viewBox="0 0 1024 1024" version="1.1" xmlns="http://www.w3.org/2000/svg" p-id="6283" width="200" height="200"><path d="M221.998126 670.397183c36.700677-53.692758 102.395997-85.79199 102.395997-85.79199 39.888425-14.802237 82.216169-46.87375 82.216169-46.87375 10.672025-41.496158 22.563709-40.415096 22.563709-40.415096 5.765665 0.360354 5.793385 11.475891 5.793385 11.475892-11.725367-1.330538-13.443979 14.358724-13.443979 14.358724-5.155835 20.623341 21.565806 54.967857 21.565805 54.967857 12.446075 12.113441 43.769161 70.878875 43.769161 70.878875l44.40671-42.383184c57.518055-52.085024 55.938041-71.128351 55.938041-71.128351-5.654787-24.060565 5.48847-38.197532 5.48847-38.197532l6.292337 9.923597 15.80014 36.811555 38.142093 21.344049c66.000235 28.163057 63.976709 38.30841 73.235037 41.468439 9.258328 3.132309 70.962034 63.533196 70.962033 63.533196s56.270675 67.940604 105.445148 222.532503 21.815282 99.014213 20.013511 121.217568c-1.80177 22.231075 0 0 0 0H96.98298s-6.126019-84.406013 76.810858-262.836721 24.808992-56.963664 48.204288-80.885631" fill="#D3C096" p-id="6284"></path><path d="M753.132317 856.838839s23.14582-15.716982 28.523412-86.817613c0 0-1.081062-25.280225-19.791755-46.319359 0 0 5.044957 65.944796-45.764968 119.88703l37.033311 13.249942zM339.944787 818.807624s-57.046823-35.564176-68.217799-116.976477c0 0-13.942931 16.798044-13.055905 24.670394 0 0-0.997904 50.726766 25.890055 96.353137l25.474261 27.580947 29.909388-31.628001zM122.235485 883.421882s-1.940368 105.88866 15.384347 130.780811h-38.252971c0-0.02772-2.134405-79.555093 22.868624-130.780811z" fill="#B7A17A" p-id="6285"></path><path d="M442.61798 944.460319l29.715352-13.194503-14.913115 82.909158h-17.768228zM580.550433 944.460319l-29.715351-13.194503 14.913115 82.909158h17.768228z" fill="#A18A61" p-id="6286"></path><path d="M440.594453 942.492232s48.730959-10.893781 53.304684-29.271839c0 0 21.122293-36.783836 13.99837-94.412769 0 0 0.803867-55.633126 4.435128-59.264386l0.997903-49.812021-5.959702-1.580014-3.104589-11.337294-9.563243 1.385977-2.855113 13.083625s-1.21966 13.083625-6.458654 21.122293l-12.058002 31.267646-14.331004 68.106921s-12.390636 9.092011-13.277662 32.487306-5.128116 78.224555-5.128116 78.224555z" fill="#EDDACA" p-id="6287"></path><path d="M585.096439 942.492232s-48.730959-10.893781-53.304684-29.271839c0 0-21.122293-36.783836-13.99837-94.412769 0 0-0.803867-55.633126-4.435127-59.264386l-0.997904-49.812021 5.959702-1.580014 3.104589-11.337294 9.563243 1.385977 2.855113 13.083625s1.21966 13.083625 6.458654 21.122293l12.058002 31.267646 14.331004 68.106921s12.390636 9.092011 13.277662 32.487306 5.128116 78.224555 5.128116 78.224555z" fill="#EDDACA" p-id="6288"></path><path d="M444.003957 921.369939c0 1.413697 10.782903-3.381784 12.058002-3.991615 16.520849-7.90007 26.389006-25.58514 31.461683-42.466342 6.264617-20.955976 3.575821-42.771257 4.601445-64.309343 0.443513-9.452365 1.108782-18.87701 2.245283-28.273935 0.526671-4.407408 1.19194-8.814815 2.051246-13.166784 0.58211-2.993711 0.942465-8.593059 2.827394-11.060098 0 0-10.33939 13.277662-13.333101 33.180295 0 0-1.385977-33.346612 4.546005-47.48358l-8.731657 16.243653s2.106685-21.122293 4.546006-28.800607l6.624971-19.375961 1.80177-13.610297 8.315864-2.43932 4.324249 5.072677v7.345679l5.155835 2.605638v61.287912s-5.654787 3.853017-4.601445 24.282321v66.554627s-5.599348 51.475194-34.566272 66.138833c0 0-17.823667 10.256231-29.327278 12.806429v-20.540182z" fill="#E5CFBA" p-id="6289"></path><path d="M579.635689 921.369939c0 1.385977-9.258328-2.633357-9.979036-2.965991-5.211274-2.356161-8.897974-4.906359-12.917308-9.14745-8.897974-9.369206-15.522945-20.872817-19.625438-33.097136-5.377592-16.105055-5.044957-33.318892-5.155835-50.089217-0.083159-17.0198-1.053343-34.011881-3.686699-50.837645-0.914745-5.765665-1.995807-11.58677-3.880737-17.130678 0 0 10.33939 13.277662 13.333101 33.180295 0 0 1.385977-33.346612-4.546005-47.48358l8.731656 16.243653s-2.106685-21.122293-4.546005-28.800607l-6.624971-19.375961-1.80177-13.610297-8.315864-2.43932-4.324249 5.072677v7.345679l-5.155835 2.605638v61.287912s5.654787 3.853017 4.601445 24.282321v66.554627s5.599348 51.475194 34.566271 66.138833c0 0 17.823667 10.256231 29.327279 12.806429v-20.540182z" fill="#E5CFBA" p-id="6290"></path><path d="M427.067316 1014.174974h12.14116l6.181459-123.185656 1.746331-29.354997 6.985325-24.476358-8.010948 6.320056-9.784999 15.023993-4.546006 27.580947-1.385977 77.171212z" fill="#FFFFFF" p-id="6291"></path><path d="M699.772194 282.850232s-18.100863 96.76893-27.913581 119.138602c0 0 14.913115 9.75728 29.82623-16.354531 0 0 35.675054-51.586072 34.732589-78.778946 0 0 3.215467-26.222689-18.045423-30.685535 0 0-13.942931-2.328442-18.599815 6.68041z" fill="#EDDACA" p-id="6292"></path><path d="M694.394603 311.512241s14.053809-16.825763 24.698114-7.90007c0 0 8.010948 5.377592 3.381784 22.646867 0 0-7.761472 38.280691-33.235734 41.163524 0 0-0.02772 0.58211-7.29024 0l12.446076-55.910321z" fill="#E5CFBA" p-id="6293"></path><path d="M323.091304 283.155147s18.100863 96.76893 27.913582 119.138602c0 0-14.913115 9.75728-29.82623-16.354531 0 0-35.675054-51.586072-34.732589-78.778946 0 0-3.215467-26.222689 18.045423-30.685535 0-0.02772 13.942931-2.328442 18.599814 6.68041z" fill="#EDDACA" p-id="6294"></path><path d="M323.34078 292.884707s-21.92616-16.160494-36.340323 11.919404c0 0 7.151642 49.202191 29.438157 72.542048 0 0 2.799674 24.97531 35.037504 27.941301l-28.135338-112.402753z" fill="#E5CFBA" p-id="6295"></path><path d="M700.742378 276.086663c1.607734-9.868158 3.243187-20.346146 4.850921-31.489403 0 0 16.687166-95.826465-78.50175-169.615892 0 0-165.236205-97.877712-276.391578 45.127418 0 0-46.374798 58.959471-31.822037 137.51666 0 0 24.116004 146.830427 36.534359 156.532268 0 0 43.907758 97.877712 155.81156 101.065459 0 0 109.187286-2.356161 157.474732-105.334269 0-0.02772 16.049616-36.478921 32.043793-133.802241" fill="#EDDACA" p-id="6296"></path><path d="M516.351968 514.890539c-29.105522-1.108782-62.341256-22.53599-83.463548-40.415096-56.769627-48.037971-78.030518-132.388544-85.043562-203.794091-5.044957-51.502914-2.162124-103.698816 6.126019-154.702778 0 0-48.814118 69.3543-35.120663 141.646872 0 0 20.512463 137.766136 39.888425 163.018641 0.02772 0 37.948056 89.728165 157.613329 94.246452z" fill="#E5CFBA" p-id="6297"></path><path d="M511.36245 143.698119c23.977406 0 47.927092-3.298626 70.463083-9.895878 0 0 58.543678-9.175169 88.037273 27.026556 0 0 21.815282 24.559516 33.734685 54.302588 0 0 10.921501-31.350805-42.161427-109.159566 0 0-53.886794-64.198465-150.073614-63.699514-96.186819-0.526671-150.073614 63.699513-150.073613 63.699514-53.082928 77.836481-42.161427 109.159566-42.161427 109.159566 11.891685-29.770791 33.734686-54.302588 33.734685-54.302588 29.521315-36.201725 88.037273-27.026556 88.037273-27.026556 22.563709 6.597252 46.513396 9.895877 70.463082 9.895878z" fill="#D9CCB7" p-id="6298"></path><path d="M347.595382 167.259731s1.385977-17.712789 6.403214-51.308876c0 0-36.340323 55.799443-35.758212 101.342654-0.02772 0.02772 17.851387-42.632659 29.354998-50.033778z" fill="#C6B9A7" p-id="6299"></path><path d="M430.282783 493.019818s6.07058 27.553227 3.104589 36.478921c0 0 15.550664 34.732589 29.105522 44.157234l27.192873 45.62637s26.915678-50.671327 96.408575-90.310276c0 0-1.19194-31.212207 8.371303-30.962731l-3.492663-4.989518s-35.508736 21.593525-88.591664 22.591429c-0.02772 0-28.57885 0.942465-72.098535-22.591429z" fill="#EDDACA" p-id="6300"></path><path d="M484.862566 545.298879c-4.102493-0.58211-8.232705-1.746331-12.473795-3.65898-7.539716-3.409504-14.746798-7.761472-20.955976-13.222223-5.294433-4.656883-16.798044-16.021897-16.132775-23.894247l0.831587-9.923597s25.280225 20.540182 68.439555 20.955976c0 0 46.790591 2.134405 85.81971-22.868624-2.661076 1.718612-5.044957 5.682507-7.31796 7.927789-6.70813 6.652691-14.053809 12.695551-21.815281 18.073143-10.893781 7.567436-22.674587 13.887492-35.120663 18.544376-14.053809 5.266713-27.414629 10.034475-41.274402 8.066387z" fill="#E5CFBA" p-id="6301"></path><path d="M506.53925 435.889837a7.872351 4.906359 90 1 0 9.812718 0 7.872351 4.906359 90 1 0-9.812718 0Z" fill="#E5CFBA" p-id="6302"></path><path d="M511.223853 469.15329s11.226416-0.02772 20.318426-4.795481c0 0 17.463313-11.032379 19.819474-14.635919h-79.943166c-0.02772 0 18.017704 19.431401 39.805266 19.4314z" fill="#DDAF8A" p-id="6303"></path><path d="M511.556487 456.208263h-0.138597c-2.273003-0.02772-4.573725-0.02772-6.791289-0.526671-4.601444-1.025623-9.313767-0.554391-13.99837-0.60983-4.518286-0.055439-10.006756-0.526671-14.192407-2.383881-3.409504-1.496855-6.07058-3.575821-8.842534-6.07058-0.665269-0.60983-1.524575-1.19194-2.134405-1.85721 0 0 14.220126 3.437224 26.278128 2.356161 0 0 14.02609-2.356161 18.378058 3.270907h2.799674c4.351968-5.627068 18.100863-3.298626 18.100863-3.298626 13.582577 1.302819 26.028652-2.328442 26.028652-2.328442-1.413697 1.552294-2.965991 2.771954-4.712323 4.213371-2.716515 2.217564-5.959702 3.880736-9.341486 4.87864-2.078966 0.60983-4.185651 0.748428-6.347776 0.887025-2.494759 0.166317-4.961798 0.332635-7.456557 0.277196-3.603541-0.083159-7.234801-0.166317-10.782903 0.637549-2.217564 0.526671-4.546005 0.58211-6.846728 0.554391z" fill="#CDA484" p-id="6304"></path><path d="M486.886093 649.025414l70.767997-68.13464s32.625904-34.233637 30.075706-55.549967c0 0-62.784768 47.733056-71.23923 58.515958 0 0-23.783369 29.715352-25.058468 34.73259 0 0-32.126952-49.534826-37.061031-56.104358l-19.071047-35.425578V504.495709s-18.378058 8.842535-14.386443 25.529701c0 0 7.539716 33.235734 28.60657 56.797347l37.365946 62.202657z" fill="#FFFFFF" p-id="6305"></path><path d="M511.473329 519.103909c-14.829956 0-24.559516-1.469136-24.97531-1.524575-67.303054-14.053809-109.630798-62.840207-111.404849-64.891453-13.832053-14.829956-22.868624-34.788028-27.99674-48.897277l7.816911-2.827393c4.85092 13.38854 13.36082 32.26555 26.361287 46.208481 0.526671 0.60983 42.466342 48.841837 106.692527 62.258096 0.055439 0 9.480084 1.413697 23.506174 1.413697 14.136968 0 23.617052-1.413697 23.72793-1.441416 64.115306-13.41626 105.944099-61.592828 106.359892-62.09178 13.111345-14.081529 21.621245-32.958538 26.499884-46.347078l7.816912 2.827393c-5.128116 14.109248-14.164687 34.06732-28.107618 49.035875-1.663173 1.940368-43.990917 50.699047-111.072215 64.725136-0.63755 0.083159-10.394829 1.552294-25.224785 1.552294zM705.621018 275.948065l-8.232705-1.164221c3.076869-21.482647 4.462847-38.97368 4.351969-55.023295-0.110878-21.371769-5.211274-42.965294-15.550665-66.027955-10.311671-22.979502-25.224785-43.990917-43.214769-60.761242-8.177266-7.622875-16.021897-13.638016-23.977406-18.405777a197.465719 197.465719 0 0 0-23.395296-11.919404 200.8281 200.8281 0 0 0-60.511765-15.356628c-22.646868-2.134405-45.376894-1.21966-65.75076 2.605637-23.312137 4.379688-45.321455 12.695551-65.390405 24.670395-7.955509 4.740042-15.80014 10.782903-23.977406 18.405777-17.962265 16.770324-32.903099 37.781739-43.187051 60.761242-10.33939 23.062661-15.439786 44.656186-15.550664 66.027955-0.083159 16.049616 1.302819 33.512929 4.351968 55.023295l-8.232704 1.164221c-3.132309-21.89844-4.546005-39.777546-4.435127-56.242955 0.138598-22.53599 5.46075-45.238297 16.271372-69.38202 10.755183-23.977406 26.333567-45.903566 45.099699-63.422318 8.620778-8.038668 16.908922-14.414163 25.391103-19.45912 20.928256-12.501515 43.852319-21.150012 68.13464-25.723738 21.122293-3.991614 44.683906-4.934079 68.079201-2.716515 21.815282 2.051246 43.020733 7.428838 63.006525 15.994177 8.371302 3.575821 16.576288 7.761472 24.393199 12.446076 8.482181 5.072677 16.798044 11.420452 25.391103 19.45912 18.766132 17.518752 34.372235 39.472631 45.127418 63.422318 10.838342 24.143723 16.160494 46.84603 16.271373 69.38202 0.083159 16.465409-1.330538 34.344516-4.462847 56.242955z" fill="#5E4A3E" p-id="6306"></path><path d="M705.260664 277.250884s-12.77871 52.528537-14.996273 52.528537c0 0 5.931983-49.617985 7.179362-55.328211l5.238993-0.332635 2.577918 3.132309zM675.462154 403.596568s10.422549-37.948056 11.669928-56.797347c0 0-17.989984 51.974146-19.320522 54.856978-1.385977 2.910552 7.650594 1.940368 7.650594 1.940369z" fill="#5E4A3E" p-id="6307"></path><path d="M319.210568 280.965303s11.143257 48.952716 13.38854 48.952715c0 0-5.876543-50.006058-7.096203-55.688564h-4.989518l-1.302819 6.735849zM347.650821 404.344995s-10.588866-38.724204-11.836246-57.573494c0 0 17.879106 51.502914 19.209645 54.385747 1.358258 2.938272-7.373399 3.187748-7.373399 3.187747z" fill="#5E4A3E" p-id="6308"></path><path d="M680.396233 407.72678c-5.211274 0-9.396926-1.330538-9.75728-1.441417l2.577918-7.90007c0.110878 0.02772 11.780806 3.65898 16.825763-2.827393 7.92779-10.200792 14.275565-21.787562 20.429304-32.986258 2.356161-4.296529 4.712323-8.593059 7.151643-12.834149 7.373399-12.75099 12.1966-26.13953 13.97065-38.724204 2.106685-14.774517-0.166317-23.1181-7.595155-27.885862-6.153739-3.936175-15.522945-4.379688-20.845097 2.605637l-6.624971-5.044957c7.31796-9.618682 21.039134-11.55905 31.960634-4.546005 13.499418 8.676217 12.945027 24.725834 11.337294 36.035408-1.940368 13.610296-7.123923 28.052179-14.996274 41.717914-2.4116 4.185651-4.740042 8.454461-7.068483 12.695552-6.292337 11.503611-12.80643 23.367576-21.150013 34.095039-4.407408 5.627068-10.838342 7.040764-16.215933 7.040765z" fill="#5E4A3E" p-id="6309"></path><path d="M694.394603 309.405555s10.422549-13.887492 23.145819-9.757279c9.75728 3.160028 9.618682 19.625437 4.961799 26.610762 0.887025-1.330538-0.304915-5.987422-0.526672-7.373398-0.665269-4.102493-1.635453-8.953413-4.656883-12.030283-3.437224-3.464943-9.507804-1.718612-13.083625 0.277196-2.494759 1.413697-4.740042 3.187748-7.040764 4.87864-1.053343 0.776147-2.078966 1.690892-2.633357 2.882832 0.166317-0.332635-0.083159-1.21966-0.110878-1.635453-0.02772-0.58211-0.02772-1.164221-0.02772-1.774051-0.02772-0.665269-0.02772-1.358258-0.027719-2.078966zM693.563016 321.740753s15.21803 7.706033 11.254135 25.058468c0 0-4.490566 13.776614-15.550664 20.67878 0 0 8.260424-0.498952 14.968554-6.791288 0 0 9.618682-12.058002 5.765665-23.312137 0 0-1.884929-10.36711-15.606103-18.572095 0-0.02772-2.494759 0.194037-0.831587 2.938272z" fill="#5E4A3E" p-id="6310"></path><path d="M343.021657 407.72678c-5.377592 0-11.808526-1.413697-16.215934-7.068484-8.343583-10.699744-14.857676-22.591429-21.150012-34.09504-2.328442-4.24109-4.656883-8.5099-7.068484-12.695551-7.90007-13.665735-13.083625-28.107618-14.996273-41.717915-1.607734-11.309574-2.162124-27.35919 11.337293-36.035407 10.893781-7.013045 24.642675-5.044957 31.960635 4.546005l-6.624971 5.044957c-5.322153-6.985325-14.691359-6.541812-20.845098-2.605637-7.428838 4.767762-9.701841 13.111345-7.595155 27.885861 1.774051 12.584673 6.624971 25.973213 13.970651 38.724204 2.43932 4.24109 4.823201 8.53762 7.179362 12.861869 6.153739 11.198696 12.501515 22.785466 20.429304 32.986258 5.044957 6.486373 16.687166 2.855113 16.825763 2.827393l2.577918 7.90007c-0.388074 0.110878-4.573725 1.441416-9.784999 1.441417z" fill="#5E4A3E" p-id="6311"></path><path d="M329.023287 309.405555s-10.422549-13.887492-23.14582-9.757279c-9.75728 3.160028-9.618682 19.625437-4.961798 26.610762-0.887025-1.330538 0.304915-5.987422 0.526671-7.373398 0.665269-4.102493 1.635453-8.953413 4.656884-12.030283 3.437224-3.464943 9.507804-1.718612 13.083625 0.277196 2.494759 1.413697 4.740042 3.187748 7.040764 4.87864 1.053343 0.776147 2.078966 1.690892 2.633357 2.882832-0.166317-0.332635 0.083159-1.21966 0.110878-1.635453 0.02772-0.58211 0.02772-1.164221 0.027719-1.774051 0.02772-0.665269 0.02772-1.358258 0.02772-2.078966zM329.854873 321.740753s-15.21803 7.706033-11.254135 25.058468c0 0 4.490566 13.776614 15.550665 20.67878 0 0-8.260424-0.498952-14.968554-6.791288 0 0-9.618682-12.058002-5.765666-23.312137 0 0 1.884929-10.36711 15.606104-18.572095 0-0.02772 2.494759 0.194037 0.831586 2.938272z" fill="#5E4A3E" p-id="6312"></path><path d="M493.705101 626.877498l-4.740042-3.65898c-3.187748-2.494759-11.337294-17.518752-15.938739-26.361286-8.426742-13.582577-23.395296-33.762405-23.533893-33.984162-12.473795-15.495225-18.073143-32.043793-18.294899-32.736782l-0.277196-0.859306 0.110879-0.914745c1.857209-17.296996-2.938272-34.732589-2.965992-34.926626l8.010949-2.245283c0.221756 0.748428 5.100396 18.516656 3.326345 37.088751 1.24738 3.409504 6.624971 16.936642 16.714885 29.493595 0.720708 0.970184 15.522945 20.928256 24.116004 34.815748l0.138598 0.277195c3.437224 6.597252 7.539716 13.99837 10.450268 18.821571 7.151642-12.889588 28.939204-42.965294 91.834851-86.873052 0.138598-8.953413 1.21966-21.815282 5.931982-27.165154v-5.322153h8.315864v9.785l-2.300722 1.136501c-1.857209 1.607734-3.65898 12.945027-3.65898 23.72793v2.189844l-1.801771 1.24738c-82.410206 57.18542-93.525743 90.393435-93.636621 90.726069l-1.80177 5.737945z" fill="#5E4A3E" p-id="6313"></path><path d="M486.719775 657.368997l-3.492662-6.320056c-1.82949-3.298626-3.63126-6.624971-5.433031-9.923597-9.840438-18.017704-20.013511-36.617518-32.653623-53.166086-13.055905-17.075239-21.399488-32.709062-25.529701-47.816214-1.385977-5.100396-2.162124-9.784999-2.383881-14.275566-0.277195-6.514093 2.827394-19.653157 16.659447-22.674587l1.774051 8.121826c-10.228512 2.245283-10.173073 12.972747-10.117634 14.192407 0.166317 3.853017 0.859306 7.92779 2.078966 12.446076 3.825297 14.02609 11.725367 28.745168 24.116003 44.933381 13.028186 17.04752 23.339856 35.952249 33.346612 54.219429 0.803867 1.496855 1.635453 2.993711 2.46704 4.490566 1.081062-1.108782 2.189844-2.134405 3.243186-3.104589 0.803867-0.720708 1.580014-1.441416 2.300723-2.162124 3.243187-3.187748 6.763569-6.569532 10.838342-10.33939 4.795481-4.490566 9.674121-8.897974 14.55276-13.305381 13.166784-11.947124 26.77708-24.310041 38.807363-37.698581l2.577917-2.855113c13.277662-14.691359 26.998836-29.853949 22.979503-50.006058l8.149546-1.635453c4.823201 24.226882-11.004659 41.745634-24.97531 57.18542l-2.550198 2.827393c-12.307478 13.693455-26.084091 26.19497-39.417192 38.308411-4.85092 4.379688-9.674121 8.787096-14.469602 13.249942-3.991614 3.714419-7.484277 7.040764-10.672025 10.173073-0.776147 0.776147-1.635453 1.552294-2.494759 2.356161-2.300722 2.106685-4.656883 4.296529-6.015141 6.541813l-3.6867 6.236897z" fill="#5E4A3E" p-id="6314"></path><path d="M487.357325 642.816236l-8.260424-0.859305c0.692989-6.70813 11.060098-28.440253 13.139064-32.736782l7.484277 3.60354c-4.87864 10.145353-11.947124 26.13953-12.362917 29.992547zM918.313083 998.762907c-1.580014-24.836712-5.959702-51.447475-13.471699-81.356863-6.486373-25.890055-14.885395-52.500817-24.94759-79.056141-6.292337-16.604007-14.02609-32.986258-21.510366-48.814118-4.296529-9.092011-8.731657-18.461217-12.861869-27.858142-32.903099-75.147685-59.818777-94.828562-60.095972-95.022598l-0.554391-0.388074-0.415793-0.554391c-2.300722-3.104589-5.211274-6.042861-8.010949-8.870254l-4.019334-4.102493c-12.335197-12.667832-25.113907-25.779176-39.056838-36.728396-16.770324-13.166784-36.783836-25.169346-59.430703-35.619615-52.389939-24.199162-69.132544-42.078269-69.825533-42.826696l6.12602-5.627067-3.07687 2.799674 3.04915-2.827394c0.166317 0.166317 16.604007 17.546472 67.164456 40.914048 23.228978 10.727464 43.769161 23.062661 61.066157 36.645237 14.386444 11.281855 27.331471 24.614955 39.888424 37.476825l3.963895 4.047053c2.882833 2.910552 5.848824 5.904263 8.426742 9.286047 4.324249 3.298626 30.602377 25.501981 62.368975 98.071749 4.102493 9.258328 8.5099 18.599814 12.77871 27.636386 7.539716 15.994177 15.356628 32.515026 21.759842 49.423947 10.173073 26.860239 18.682973 53.775916 25.252505 79.970886 7.622875 30.40834 12.085721 57.490335 13.693455 82.853719l-8.260424 0.526671z" fill="#5E4A3E" p-id="6315"></path><path d="M594.105291 502.05639s9.424645 23.561613 17.102959 48.620081c0 0 5.211274 14.635919 5.710226 18.350338 0 0 3.132309-13.38854-7.345679-41.911951 0 0-4.795481-16.382251-13.721175-31.738879l-3.132308 1.995808 1.385977 4.684603zM606.357329 670.480342c9.258328-16.493129 16.43769-33.790125 16.520849-53.332404 0.02772-5.848824 0.138598-11.919404-0.582111-17.823667-0.692989-5.737946-2.827394-11.254135-3.132308-17.075239 0.304915 9.895877-0.249476 19.819474-0.914745 29.687632-0.665269 9.618682-1.746331 19.292803-4.518286 28.57885-1.580014 5.377592-3.880736 10.644305-6.292336 15.716982-6.763569 14.220126-15.495225 27.38691-24.032845 40.609133-8.814815 13.610296-17.0198 27.608666-25.391103 41.496158-1.912649 3.160028-3.825297 6.347776-5.737946 9.507803-0.332635 0.554391-2.217564 2.827394-2.106685 3.492663l1.552294 8.676217c18.156302-29.79851 37.559983-59.125788 54.635222-89.534128zM394.302814 669.759634c-7.179362-10.533427-12.834149-22.009318-16.382251-34.788029-0.110878-0.388074-0.221756-0.776147-0.304915-1.19194-2.4116-9.618682-1.469136-18.987888-0.498951-28.717448 0.692989 5.183555 1.663173 10.36711 2.799674 15.495225 5.543909 24.808992 18.960168 46.513396 36.728396 64.420222 3.326345 3.354065 6.791288 6.597252 10.450268 9.618682 0.803867 0.665269 9.064291 7.401118 10.117634 6.236897l-6.929886 7.678314c-0.997904 0.221756-6.403215-5.876543-7.31796-6.735849-2.522479-2.356161-5.017238-4.740042-7.484277-7.151643-7.92779-7.733753-15.107152-15.966458-21.177732-24.864431zM101.030034 1004.556292l-8.315864-0.138598c0.665269-39.52807 10.311671-77.91964 18.627534-106.942002 10.200792-35.508736 22.591429-68.716751 37.892617-101.508972 4.26881-9.14745 8.454461-18.627534 12.501515-27.774984 12.085721-27.331471 24.587236-55.633126 41.717914-80.857911 22.231075-32.764502 51.890987-63.061964 83.574427-85.348478 9.868158-6.929886 19.237364-12.723271 28.634289-17.657349 6.320056-3.326345 12.889588-6.181458 19.237364-8.953413 7.207082-3.132309 14.663639-6.375495 21.621245-10.256232 18.738412-10.477988 34.233637-21.150012 47.344982-32.709062l5.48847 6.236897c-13.582577 11.919404-29.521315 22.951783-48.786398 33.706966-7.29024 4.074773-14.940834 7.401118-22.341953 10.616586-6.209178 2.716515-12.640112 5.516189-18.682973 8.676217-9.092011 4.767762-18.156302 10.36711-27.719545 17.102959-30.851853 21.704403-59.791057 51.253438-81.467741 83.214073-16.714885 24.614955-29.050083 52.556256-40.997206 79.555092-4.074773 9.202889-8.260424 18.710693-12.584673 27.941301-15.107152 32.376428-27.35919 65.196369-37.421386 100.289312-8.204985 28.551131-17.685069 66.249711-18.322618 104.807598z" fill="#5E4A3E" p-id="6316"></path><path d="M430.171905 494.599832c-0.083159-0.249476-2.134405 0.221756-2.273003 0.277196-2.078966 0.526671-3.963895 1.635453-5.627067 2.965991-8.787096 7.096203-11.060098 19.265083-14.857676 29.327278-2.522479 6.735849-4.961798 13.554857-6.763569 20.540182 0 0-5.959702 22.813185-12.640112 33.235734 0 0 7.595155-4.407408 15.218029-24.781273 0 0 14.857676-42.660379 18.184022-48.869557l-3.298626 6.209178s6.624971-12.667832 13.942931-13.416259c-0.02772-0.02772-1.884929-5.48847-1.884929-5.48847z" fill="#5E4A3E" p-id="6317"></path><path d="M551.694388 296.682285c18.932449-28.60657 73.761708-53.193806 102.645473-22.896344 5.737946 6.042861 6.486373 9.008852 6.486373 10.893781-25.917774-11.919404-56.797347-16.049616-83.518987-4.241091-1.774051 0.776147-3.853017 1.690892-6.07058 2.716516 0 0-7.373399 3.492663-16.188214 12.16888 0 0-2.356161 2.106685-3.354065 1.358258zM554.189147 346.771501s38.94596 9.424645 72.930121-16.853483c0 0 2.245283 0.997904-5.46075 7.678314-2.383881 2.078966-4.712323 4.074773-7.373399 5.793385-6.929886 4.518286-15.689262 7.706033-23.672491 9.812719-8.759376 2.300722-18.045423 2.827394-26.998836 1.247379 0 0-4.961798-1.413697-8.593059-4.379688-0.02772 0.02772-2.661076-2.633357-0.831586-3.298626z" fill="#442A1F" p-id="6318"></path><path d="M537.806896 312.898218c-0.02772 0.138598-0.443513 0.388074-0.554391 0.498952-0.526671 0.498952-0.997904 1.025623-1.441416 1.552294-1.690892 2.023527-3.04915 4.296529-4.157932 6.680411-1.496855 3.215467-2.467039 6.652691-2.882833 10.200792-0.415793 3.742139-0.221756 7.567436-0.221756 11.337294v6.597251c0 3.354065 0.221756 6.347776 0.997904 9.618682 0.138598-3.797578 0.304915-7.595155 0.443512-11.392733 0.388074-8.981132-0.166317-18.544375 3.936176-26.832519 1.330538-2.771954 3.132309-5.294433 3.880736-8.260424zM562.948523 314.395073c1.19194-1.496855 2.661076-2.855113 3.963895-4.102492 2.273003-2.217564 4.684603-4.296529 7.234801-6.209178 6.430934-4.795481 13.194503-7.816912 21.094573-9.008852 0.02772 0 24.310041-3.603541 37.338226 9.674121 0 0 2.356161 2.106685 2.716516 3.104589 0 0-4.24109-2.4116-5.793385-3.520382-13.443979-9.480084-32.736782-10.283951-47.178665-2.522479-3.520382 1.884929-6.514093 4.462847-9.507803 7.040765-2.550198 2.189844-5.46075 4.324249-7.595156 6.929886 0 0-0.360354 0.498952-3.60354 3.714419-0.859306 0.859306-0.859306-0.63755-0.748428-1.053343 0.332635-1.496855 1.108782-2.827394 2.078966-4.047054z" fill="#AF8B7B" p-id="6319"></path><path d="M470.836476 296.682285c-18.932449-28.60657-73.761708-53.193806-102.645473-22.896344-5.737946 6.042861-6.486373 9.008852-6.486373 10.893781 25.917774-11.919404 56.797347-16.049616 83.518987-4.241091 1.774051 0.776147 3.853017 1.690892 6.070581 2.716516 0 0 7.373399 3.492663 16.188214 12.16888 0 0 2.356161 2.106685 3.354064 1.358258zM468.341717 346.771501s-38.94596 9.424645-72.930121-16.853483c0 0-2.245283 0.997904 5.46075 7.678314 2.383881 2.078966 4.712323 4.074773 7.373399 5.793385 6.929886 4.518286 15.689262 7.706033 23.672491 9.812719 8.759376 2.300722 18.045423 2.827394 26.998836 1.247379 0 0 4.961798-1.413697 8.593059-4.379688 0.02772 0.02772 2.661076-2.633357 0.831586-3.298626z" fill="#442A1F" p-id="6320"></path><path d="M484.723968 312.898218c0.02772 0.138598 0.443513 0.388074 0.554391 0.498952 0.526671 0.498952 0.997904 1.025623 1.441416 1.552294 1.690892 2.023527 3.04915 4.296529 4.157932 6.680411 1.496855 3.215467 2.467039 6.652691 2.882833 10.200792 0.415793 3.742139 0.221756 7.567436 0.221756 11.337294v6.597251c0 3.354065-0.221756 6.347776-0.997904 9.618682-0.138598-3.797578-0.304915-7.595155-0.443512-11.392733-0.388074-8.981132 0.166317-18.544375-3.936176-26.832519-1.330538-2.771954-3.132309-5.294433-3.880736-8.260424zM459.582341 314.395073c-1.19194-1.496855-2.661076-2.855113-3.963894-4.102492-2.273003-2.217564-4.684603-4.296529-7.234802-6.209178-6.430934-4.795481-13.194503-7.816912-21.094573-9.008852-0.02772 0-24.310041-3.603541-37.338226 9.674121 0 0-2.356161 2.106685-2.716516 3.104589 0 0 4.24109-2.4116 5.793385-3.520382 13.443979-9.480084 32.736782-10.283951 47.178665-2.522479 3.520382 1.884929 6.514093 4.462847 9.507804 7.040765 2.550198 2.189844 5.46075 4.324249 7.595155 6.929886 0 0 0.360354 0.498952 3.603541 3.714419 0.859306 0.859306 0.859306-0.63755 0.748427-1.053343-0.332635-1.496855-1.108782-2.827394-2.078966-4.047054zM511.41789 421.032161c-7.622875-0.02772-10.893781-3.936175-13.38854-6.957606-1.358258-1.663173-2.383881-3.04915-2.383881-3.049149-2.162124-3.160028-6.846727-0.803867-9.812719-1.496856-3.354065-0.776147-5.821104-2.744235-6.874447-6.07058-0.803867-2.605637-1.164221-5.322153-1.025623-8.038668 0.110878-2.273003 0.443513-4.87864 1.774051-6.763569 0.415793-0.60983 2.078966-2.577918 1.330538-3.354065-0.249476-0.249476-1.081062-0.055439-1.330538 0.194037-6.957606 6.791288-4.296529 17.851387-4.29653 17.851387 0.58211 1.82949 1.413697 3.575821 2.605637 5.100396 1.663173 2.106685 3.936175 3.603541 6.514093 4.324249 0.887025 0.249476 1.774051 0.388074 2.688796 0.471232 1.940368 0.166317 4.379688-0.942465 6.181459 0.02772 1.80177 0.970184 2.688796 4.490566 4.26881 5.987421 1.940368 1.884929 3.908456 3.492663 6.375495 4.573725 1.469136 0.63755 2.993711 1.108782 4.546005 1.358258 2.245283 0.388074 4.435127 0.304915 6.68041-0.194037 1.24738-0.277195 2.467039-0.665269 3.631261-1.19194 2.467039-1.081062 4.435127-2.688796 6.375495-4.573725 1.552294-1.524575 2.467039-5.044957 4.26881-5.987422 1.80177-0.970184 4.24109 0.138598 6.181458-0.027719 0.914745-0.083159 1.80177-0.221756 2.688796-0.471233 2.577918-0.720708 4.85092-2.217564 6.514093-4.324249 1.19194-1.496855 2.051246-3.270906 2.605637-5.100396 0 0 2.633357-11.087818-4.296529-17.851387-0.249476-0.221756-1.081062-0.443513-1.330539-0.194036-0.748428 0.776147 0.914745 2.744235 1.330539 3.354065 1.330538 1.912649 1.663173 4.518286 1.77405 6.763568 0.138598 2.716515-0.221756 5.46075-1.025623 8.038668-1.025623 3.326345-3.492663 5.294433-6.874447 6.070581-2.965991 0.665269-7.650594-1.663173-9.812718 1.496855 0 0-1.025623 1.385977-2.383881 3.04915-2.577918 3.04915-5.876543 6.957606-13.499418 6.985325z" fill="#AF8B7B" p-id="6321"></path><path d="M556.988821 342.641289c12.002563 2.189844 25.169346 3.492663 37.08875 0.083159 8.53762-2.43932 17.075239-6.181458 24.587236-10.921501 0.942465-0.60983 1.884929-1.21966 2.827394-1.884929-5.682507 4.047053-13.38854 6.624971-19.958072 8.814816-9.563243 3.215467-18.682973 4.906359-28.772888 4.601444-5.128116-0.138598-10.727464 0.166317-15.77242-0.692989zM466.928021 342.641289c-12.002563 2.189844-25.169346 3.492663-37.088751 0.083159-8.53762-2.43932-17.075239-6.181458-24.587236-10.921501-0.942465-0.60983-1.884929-1.21966-2.827393-1.884929 5.682507 4.047053 13.38854 6.624971 19.958072 8.814816 9.563243 3.215467 18.682973 4.906359 28.772887 4.601444 5.128116-0.138598 10.727464 0.166317 15.772421-0.692989z" fill="#D2C4B2" p-id="6322"></path><path d="M511.36245 466.769409c6.569532 0 13.554857-0.859306 19.48684-3.658979 5.765665-2.688796 10.727464-6.597252 15.966458-10.062195 3.104589-2.051246 6.209178-5.044957 9.341486-7.040764-3.686699 2.550198-7.096203 6.430934-10.505707 9.313767-3.603541 3.04915-6.846727 6.624971-10.97694 9.064291-4.074773 2.4116-8.648498 4.379688-13.416259 5.072676-1.746331 0.249476-3.520382 0.415793-5.294433 0.443513-2.383881 0.055439-4.823201-0.110878-7.234801-0.02772-2.43932 0.083159-4.85092-0.055439-7.29024-0.415793-4.767762-0.692989-9.341486-2.661076-13.41626-5.072676-4.102493-2.43932-7.373399-6.015141-10.97694-9.064291-3.409504-2.882833-6.791288-6.763569-10.505707-9.313767 3.132309 2.023527 6.236898 4.989518 9.341487 7.040764 5.238994 3.464943 10.200792 7.373399 15.966457 10.062195 5.987422 2.771954 12.945027 3.65898 19.514559 3.658979z" fill="#AF8B7B" p-id="6323"></path><path d="M511.722805 448.363632c0.526671-0.110878 1.025623-0.249476 1.469135-0.471232 0.776147-0.360354 1.496855-0.831586 2.328442-1.164221 3.714419-1.469136 7.844631-2.106685 11.808526-1.552295 5.599348 0.803867 11.170976 1.025623 16.825764 1.081063 4.26881 0.055439 8.593059-0.249476 12.612392-1.746332 0.471232-0.166317 1.524575-0.388074 1.884929-0.748427-2.134405 2.4116-6.624971 2.744235-9.563242 3.132308-7.31796 0.970184-14.802237 0.914745-22.203356 0.58211-3.686699-0.166317-6.70813-0.249476-10.089914 1.524575-1.663173 0.859306-3.076869 2.4116-5.044957 2.356162-1.968088 0.055439-3.381784-1.496855-5.072677-2.356162-3.381784-1.746331-6.403215-1.663173-10.089914-1.524575-7.373399 0.332635-14.857676 0.388074-22.203355-0.58211-2.965991-0.388074-7.428838-0.720708-9.563243-3.132308 0.332635 0.388074 1.413697 0.58211 1.884929 0.748427 4.019334 1.496855 8.343583 1.80177 12.612393 1.746332 5.654787-0.055439 11.226416-0.277195 16.825764-1.081063 3.991614-0.554391 8.094107 0.055439 11.808526 1.552295 0.803867 0.332635 1.524575 0.803867 2.328441 1.164221 0.415793 0.221756 0.914745 0.360354 1.441417 0.471232z" fill="#AF8B7B" p-id="6324"></path><path d="M552.858609 445.619397s5.322153-1.607734 8.870254-5.876543c-0.110878 1.524575-0.194037 3.02143-0.332635 4.546005 0 0.02772-2.744235 0.748428-2.938271 0.831586-1.275099 0.471232-2.522479 1.053343-3.603541 1.884929 0 0 0.055439-0.083159 0.194037-0.221756 0.332635-0.332635 1.025623-0.970184 1.580014-1.496856 0 0 0.332635-0.083159-1.663173 0.63755l-2.106685-0.304915zM469.921731 445.619397s-5.322153-1.607734-8.870254-5.876543c0.110878 1.524575 0.194037 3.02143 0.332635 4.546005 0 0.02772 2.744235 0.748428 2.938271 0.831586 1.275099 0.471232 2.522479 1.053343 3.603541 1.884929 0 0-0.055439-0.083159-0.194037-0.221756-0.332635-0.332635-1.025623-0.970184-1.580014-1.496856 0 0-0.332635-0.083159 1.663173 0.63755l2.106685-0.304915z" fill="#AF8B7B" p-id="6325"></path><path d="M597.967931 388.46575a8.593059 23.75565 81.931 1 0 47.040926-6.66895 8.593059 23.75565 81.931 1 0-47.040926 6.66895Z" fill="#EFCBB4" p-id="6326"></path><path d="M402.006994 393.690694a23.75565 8.593059 8.059 1 0 2.409369-17.016391 23.75565 8.593059 8.059 1 0-2.409369 17.016391Z" fill="#EFCBB4" p-id="6327"></path><path d="M511.029816 456.901252c-0.914745 0-1.857209-0.055439-2.771955-0.138598l-0.803866-0.083159c-2.771954-0.304915-5.48847-1.053343-8.288144-1.108782-5.516189-0.083159-10.94922 0.083159-16.43769-0.60983-0.970184-0.138598-1.968088-0.277195-2.910552-0.526671-0.914745-0.249476-1.80177-0.58211-2.688796-0.970184-3.742139-1.663173-4.989518-3.04915-4.989518-3.04915-5.017238-4.601444-6.347776-5.211274-6.347776-5.211274l0.110879-0.859306 0.58211 0.665269c0.526671 0.526671 1.081062 1.025623 1.635453 1.524575 1.025623 0.942465 1.995807 1.940368 3.04915 2.827394 0.443513 0.388074 0.970184 0.665269 1.469136 0.942464 0.526671 0.332635 1.081062 0.63755 1.607733 0.942465 1.081062 0.60983 2.189844 1.164221 3.326346 1.663172 2.217564 0.942465 4.601444 1.496855 6.985325 1.635453 2.494759 0.138598 4.989518 0.304915 7.484277 0.304915 1.136501 0 2.273003-0.02772 3.409504-0.083158 2.078966-0.110878 4.157932-0.055439 6.209178 0.194036 0.803867 0.083159 1.635453 0.194037 2.4116 0.388074 3.076869 0.748428 6.347776 0.803867 9.480084 0.692989 1.746331-0.055439 3.520382-0.277195 5.211275-0.692989 0.803867-0.194037 1.607734-0.304915 2.4116-0.388074 2.051246-0.249476 4.130212-0.304915 6.209178-0.194036 1.136501 0.055439 2.273003 0.110878 3.409504 0.083158 2.494759-0.02772 4.989518-0.194037 7.484277-0.304915 2.383881-0.138598 4.767762-0.692989 6.985325-1.635453 1.136501-0.471232 2.245283-1.053343 3.326346-1.663172 0.554391-0.304915 1.081062-0.60983 1.607733-0.942465 0.498952-0.304915 0.997904-0.58211 1.469136-0.942464 1.053343-0.887025 2.051246-1.884929 3.04915-2.827394 0.554391-0.498952 1.108782-0.997904 1.635453-1.524575l0.582111-0.665269 0.110878 0.859306s-1.358258 0.58211-6.347776 5.211274c0 0-1.275099 1.385977-4.989518 3.04915-0.859306 0.388074-1.746331 0.748428-2.688796 0.970184-0.970184 0.249476-1.940368 0.388074-2.910552 0.526671-3.381784 0.443513-6.68041 0.665269-10.089914 0.554391-2.494759-0.083159-4.989518 0-7.484277 0.194037-2.4116 0.194037-4.740042 0.692989-7.123923 0.970184-1.441416 0.166317-2.910552 0.249476-4.379688 0.221757z" fill="#AF8B7B" p-id="6328"></path><path d="M468.286278 445.813434s4.379688 4.601444 5.599348 5.266713l-0.665269 0.443513-5.100396-4.407408s-1.081062-0.914745-2.328442-1.496855l0.692989-0.554391 1.80177 0.748428zM554.57722 445.813434s-4.379688 4.601444-5.599348 5.266713l0.665269 0.443513 5.100397-4.407408s1.081062-0.914745 2.328441-1.496855l-0.692988-0.554391-1.801771 0.748428z" fill="#AF8B7B" p-id="6329"></path><path d="M444.003957 941.854682v5.599348c0 0.332635 13.222223-3.742139 13.887492-4.019334 12.640112-5.211274 27.608666-13.083625 35.647334-24.559516 6.929886-9.923597 11.309574-22.563709 13.832053-34.289077 0 0 3.686699-17.241557 4.407408-49.119032 0 0-2.106685-34.926626-1.164221-43.297929 0 0 2.328442-23.062661 1.857209-31.905196l-0.60983-30.491499s0.665269-3.270906-4.490566-2.799674c0 0-3.742139-1.524575-5.848824 6.403215-2.467039 6.042861-4.712323 12.501515-5.848824 18.932449-1.663173 9.480084-6.403215 17.851387-8.676217 27.109715-1.746331 7.068484-2.383881 14.6082-2.993711 21.843001 0 0 3.132309-4.019334 5.405311-11.863965 1.413697-10.921501 6.181458-20.983695 9.840439-31.267647 1.718612-4.85092 2.910552-9.812719 4.324248-14.746797 0.388074-1.385977 1.857209-8.981132 3.797578-9.175169 5.848824-0.554391-0.110878 23.866528-0.60983 26.72164a245.351232 245.351232 0 0 0-3.742138 43.436527c0.02772 11.947124 2.217564 23.783369 2.078965 35.730492-0.110878 10.477988-1.081062 21.094573-2.051246 31.517123-2.577918 27.691825-21.399488 52.3345-47.511299 61.953181-1.21966 0.443513-11.531331 3.492663-11.531331 4.351969v3.936175z" fill="#5E4A3E" p-id="6330"></path><path d="M582.379923 942.492232s2.051246 5.848824 0.221757 5.821104c-0.332635 0-16.132775-4.601444-16.798044-4.87864-12.640112-5.211274-27.608666-13.083625-35.647334-24.559516-6.929886-9.923597-11.309574-22.563709-13.832053-34.289077 0 0-3.686699-17.241557-4.407408-49.119032 0 0 2.106685-34.926626 1.164221-43.297929 0 0-2.550198-22.231075-2.078966-31.073609l0.831587-31.323086s-0.665269-3.270906 4.490566-2.799674c0 0 3.742139-1.524575 5.848824 6.403215 1.635453 6.126019 4.296529 11.780806 5.433031 18.100863 0.942465 5.266713 2.356161 10.477988 4.185651 15.522945 1.469136 4.074773 3.686699 7.90007 4.712322 12.085721 1.774051 7.234801 2.550198 14.774517 3.187748 22.175636 0 0-3.132309-4.019334-5.405311-11.863965-0.554391-1.940368-0.58211-4.102493-1.053343-6.0983-0.831586-3.409504-2.273003-6.735849-3.437223-10.034475-2.938272-8.177266-6.375495-16.354531-8.288144-24.808993-0.443513-2.023527-2.605637-13.99837-5.155836-14.247845-5.848824-0.554391 0.110878 23.866528 0.60983 26.72164 2.522479 14.331004 3.797578 28.883765 3.742139 43.436527-0.02772 11.947124-2.217564 23.783369-2.078966 35.730492 0.110878 10.477988 1.081062 21.094573 2.051246 31.517123 2.577918 27.691825 21.399488 52.3345 47.5113 61.953181 1.21966 0.443513 13.887492 3.991614 13.887491 4.850921 0.02772-0.02772 0.304915 4.074773 0.304915 4.074773zM458.667596 824.434692c-0.997904-3.243187 0.388074-8.593059 0.831587-11.808526 0.63755-4.573725 1.580014-9.092011 2.799674-13.527138 1.857209-6.791288 3.215467-13.083625 3.853016-20.207548 1.746331-19.791755 8.288144-37.948056 19.764036-54.16399 0 0 2.799674-3.714419 3.02143-11.060098 0.166317-5.238994-0.277195-11.337294 2.855113-15.966458 2.023527-2.993711 5.959702-4.185651 9.396926-3.825297 6.292337 0.63755 8.620778 6.985325 7.927789 12.695552l-3.880736 0.471232s0.471232-5.238994-3.603541-6.985325c0 0-5.238994-0.803867-5.017237 5.931982 0.194037 5.405311-0.63755 10.838342-2.43932 15.911019-1.884929 5.294433-5.183555 9.840438-7.761473 14.802237-3.714419 7.123923-6.541812 14.303285-8.981132 21.89844-3.575821 11.060098-4.684603 22.924063-6.874447 34.399954-1.857209 9.72956-6.430934 21.510367-5.931983 31.572562 0 0 2.328442 0.138598-4.074773 5.848823-0.02772 0.02772-1.884929-5.987422-1.884929-5.987421z" fill="#5E4A3E" p-id="6331"></path><path d="M509.56068 728.41419c-0.277195-0.166317 0.332635-4.601444 0.360354-5.044957 0.110878-2.522479 0.166317-5.072677-0.027719-7.567436-0.138598-1.469136-0.221756-4.102493-1.552295-5.100396-1.718612-1.275099-3.880736 0.360354-4.823201 1.774051-0.498952 0.776147-0.887025 1.635453-1.19194 2.494759-1.330538 4.629164-1.552294 9.563243-3.02143 14.081528-2.688796 8.260424-8.454461 15.162591-12.058002 23.007222-3.548102 7.733753-6.985325 15.744701-8.981133 24.032845 0 0-4.573725 19.043327-4.906359 21.482647 0.443513-3.187748 0.221756-6.846727 0.554391-10.200792 0.388074-3.742139 0.970184-7.484277 1.774051-11.143257 1.580014-7.234801 3.381784-14.635919 6.292336-21.454927 2.771954-6.458654 6.126019-12.335197 9.618682-18.378058 0 0 2.744235-4.712323 3.548102-12.335198 0.443513-2.910552 1.19194-5.821104 2.134405-8.620778 1.469136-4.324249 4.961798-9.008852 9.784999-9.75728 3.354065-0.526671 8.870254 1.884929 7.013045 6.042861v19.292803c0.02772-0.02772-4.518286-2.605637-4.518286-2.605637zM560.315166 825.820669c0.498952-10.062195-3.908456-23.062661-5.765665-32.792221-2.189844-11.475891-3.298626-23.339856-6.874447-34.399955-2.467039-7.622875-5.294433-14.774517-8.981133-21.89844-2.577918-4.961798-5.876543-9.507804-7.761472-14.802237-1.80177-5.072677-2.633357-10.505707-2.43932-15.911018 0.221756-6.763569-5.017238-5.931983-5.017238-5.931983-4.074773 1.746331-3.603541 6.985325-3.60354 6.985326l-3.880737-0.471233c-0.692989-5.710226 1.635453-12.058002 7.92779-12.695551 3.464943-0.360354 7.401118 0.831586 9.396926 3.825297 3.132309 4.656883 2.688796 10.727464 2.855113 15.966458 0.221756 7.345679 3.02143 11.060098 3.02143 11.060098 11.475891 16.215934 18.017704 34.372235 19.764035 54.16399 0.63755 7.151642 1.995807 13.41626 3.853017 20.207548 1.19194 4.435127 2.162124 8.953413 2.799674 13.527137 0.443513 3.215467 1.82949 8.565339 0.831586 11.808526l-1.857209 5.987422-4.26881-4.629164z" fill="#5E4A3E" p-id="6332"></path><path d="M515.520382 728.41419c-0.194037-2.217564-0.277195-4.435127-0.332634-6.652691-0.02772-2.993711-0.914745-7.484277 0.60983-10.200792 2.162124-3.880736 6.292337 1.108782 6.957605 3.409504 1.330538 4.629164 1.552294 9.563243 3.021431 14.081528 2.688796 8.260424 8.454461 15.162591 12.058001 23.007222 3.548102 7.733753 6.985325 15.744701 8.981133 24.032845 0 0 4.573725 19.043327 4.906359 21.482647-0.443513-3.187748-0.221756-6.846727-0.554391-10.200792-0.388074-3.742139-0.970184-7.484277-1.774051-11.143257-1.580014-7.234801-3.381784-14.635919-6.292336-21.454927-2.771954-6.458654-6.126019-12.335197-9.618682-18.378058 0 0-2.744235-4.712323-3.548102-12.335198-0.498952-3.160028-1.302819-6.320056-2.383881-9.313767-1.968088-5.433031-7.428838-11.226416-13.915211-9.175169-2.356161 0.748428-1.995807 4.019334-1.857209 5.931983l1.413696 18.267179 2.328442-1.358257zM465.542043 822.882397l-6.403214 3.07687s-17.574191 18.211741-18.987888 23.1181c0 0 11.503611-8.981132 11.53133-8.981133-2.965991 1.21966-6.430934 16.576288-6.957605 19.126486-3.02143 14.358724-2.799674 29.964828-3.991615 44.600747-0.58211 6.957606-1.053343 13.915211-1.19194 20.872817-0.665269 29.715352 0.471232 59.874216-3.215467 89.47869h6.292336s2.106685-47.067787 4.185651-88.286749c0 0 2.106685-14.331004 2.106686-47.843934 0 0-2.106685-26.887958 7.345679-38.419289 0 0 5.294433-5.682507 9.11973-14.885395l0.166317-1.85721z" fill="#5E4A3E" p-id="6333"></path><path d="M429.340318 1014.174974a785.959964 785.959964 0 0 0 4.795482-85.071282c0.02772-17.768228-0.498952-35.28698 2.051246-52.94433 1.413697-9.701841 6.791288-32.376428 17.962265-36.312603 0 0-6.015141-1.82949-6.042861-1.801771-4.102493 3.381784-12.362917 16.299092-13.277662 18.488936-8.897974 21.122293-5.765665 46.901469-6.236897 69.40974-0.332635 15.079432-0.665269 30.158864-0.970184 45.210577v0.471232s-3.132309 38.97368-2.799674 42.549501h4.518285zM275.30281 895.064091l-7.179362-4.213371c6.763569-11.503611 15.162591-21.92616 24.975309-30.907292l1.413697-1.302818c7.345679-6.763569 15.689262-14.414163 24.143723-19.653157 5.46075-3.381784 12.030282-5.876543 20.09667-7.595156 12.77871-2.744235 25.862335-2.827394 38.530167-2.882832h2.356161c4.601444-0.02772 9.202889 0 13.748894 0.055439 23.256698 0.194037 45.210577 0.360354 67.109017-7.844631l2.910553 7.789192c-23.339856 8.703937-47.095506 8.53762-70.102728 8.343583-4.518286-0.02772-9.064291-0.083159-13.638016-0.02772h-2.383881c-12.224319 0.055439-24.892151 0.138598-36.811555 2.688796-7.096203 1.524575-12.80643 3.65898-17.463313 6.541813-7.761472 4.823201-15.80014 12.1966-22.896344 18.710692l-1.413697 1.302819a125.8301 125.8301 0 0 0-23.395295 28.994643z" fill="#5E4A3E" p-id="6334"></path><path d="M268.234326 890.85072s-8.371302 15.134871-6.763569 30.491499c0 0 16.992081-33.762405 21.427208-37.948056l-14.663639 7.456557zM241.152331 883.033809l-5.405311-6.320056c17.518752-14.996274 44.905662-34.954346 80.137203-34.954346v8.315863c-24.725834 0-48.453764 10.477988-74.731892 32.958539z" fill="#5E4A3E" p-id="6335"></path><path d="M211.658736 913.220393s1.857209-16.992081 25.973213-38.114374l5.931982 5.931983c-0.02772-0.02772-9.563243 6.458654-31.905195 32.182391z" fill="#5E4A3E" p-id="6336"></path><path d="M598.124625 1014.174974h-12.113441l-6.209178-123.185656-1.746332-29.354997-6.985325-24.476358 8.038668 6.320056 9.784999 15.023993 4.518286 27.580947 1.413697 77.171212z" fill="#FFFFFF" p-id="6337"></path><path d="M560.426044 823.215032l6.403215 3.076869s17.574191 18.211741 18.987888 23.1181c0 0-11.503611-8.981132-11.531331-8.981132 2.965991 1.21966 6.430934 16.576288 6.957606 19.126486 3.02143 14.358724 2.799674 29.964828 3.991615 44.600747 0.58211 6.957606 1.053343 13.915211 1.19194 20.872817 0.665269 29.715352-0.471232 59.430703 3.215467 89.062896h-6.292337s-2.106685-46.651993-4.185651-87.843236c0 0-2.106685-14.331004-2.106685-47.843934 0 0 2.106685-26.887958-7.345679-38.419289 0 0-5.294433-5.682507-9.119731-14.885395l-0.166317-1.884929z" fill="#5E4A3E" p-id="6338"></path><path d="M595.879342 1014.174974a785.959964 785.959964 0 0 1-4.795482-85.071282c-0.02772-17.768228 0.498952-35.28698-2.051246-52.94433-1.413697-9.701841-6.791288-32.376428-17.962265-36.312603 0 0 6.015141-1.82949 6.042861-1.801771 4.546005 3.187748 12.362917 16.299092 13.277662 18.488936 8.897974 21.122293 5.765665 46.901469 6.236897 69.40974 0.332635 15.079432 0.665269 30.158864 0.970184 45.210577v0.471232s3.132309 38.97368 2.799674 42.549501h-4.518285zM749.91685 895.064091c-6.347776-10.810622-14.220126-20.567902-23.423015-28.994643l-1.413697-1.302819c-7.096203-6.514093-15.107152-13.887492-22.896343-18.682973-4.629164-2.882833-10.33939-5.017238-17.463313-6.541812-11.919404-2.577918-24.587236-2.633357-36.811555-2.688796h-2.383881c-4.573725-0.02772-9.11973 0-13.638016 0.027719-22.979502 0.166317-46.735152 0.360354-70.102728-8.343583l2.910552-7.789192c21.89844 8.177266 43.880039 8.010948 67.109017 7.844632 4.573725-0.02772 9.14745-0.055439 13.748894-0.05544h2.356162c12.667832 0.055439 25.751457 0.138598 38.530166 2.882833 8.066387 1.718612 14.635919 4.213371 20.09667 7.595155 8.426742 5.238994 16.770324 12.889588 24.116004 19.625438l1.413697 1.302818c9.812719 9.008852 18.211741 19.403681 24.975309 30.907292l-7.123923 4.213371z" fill="#5E4A3E" p-id="6339"></path><path d="M756.985334 890.85072s8.371302 15.134871 6.763569 30.491499c0 0-16.992081-33.762405-21.427208-37.948056l14.663639 7.456557zM784.067329 883.033809c-26.278128-22.480551-50.006058-32.958538-74.731892-32.958539v-8.315863c35.203821 0 62.590731 19.930352 80.137203 34.954346l-5.405311 6.320056z" fill="#5E4A3E" p-id="6340"></path><path d="M813.560924 913.220393s-1.857209-16.992081-25.973213-38.114374l-5.931982 5.931983c0-0.02772 9.563243 6.458654 31.905195 32.182391zM329.633117 842.036603l-6.902167-4.629164c3.187748-4.740042 6.458654-9.784999 9.840439-14.913115 11.55905-17.685069 24.642675-37.69858 38.058934-52.97205 9.895877-11.226416 20.318426-22.258794 30.40834-32.903099 8.399022-8.842535 17.075239-18.017704 25.335664-27.192873 6.569532-7.31796 13.111345-14.885395 19.45912-22.231075 11.863965-13.721175 24.060565-27.858142 37.14419-41.052645l-0.083159-0.083159 4.462847-4.26881 1.524575-1.441416c0.332635-0.304915 0.665269-0.63755 0.997904-0.942465l1.940368-1.857209 0.110878 0.110878c2.494759-1.968088 3.853017-1.995807 5.793385 0.02772 2.051246 2.162124 1.24738 4.102493-0.194037 5.821104l0.055439 0.055439-1.690892 1.607734c-0.083159 0.083159-0.166317 0.166317-0.277196 0.249476-15.439786 14.746798-29.687632 31.267646-43.491965 47.206384-6.375495 7.373399-12.945027 14.968554-19.569998 22.341953-8.343583 9.286047-17.075239 18.461217-25.501981 27.35919-10.034475 10.588866-20.429304 21.565806-30.214304 32.681343-13.028186 14.802237-25.945494 34.593992-37.338226 52.029585-3.354065 5.183555-6.652691 10.228512-9.868158 14.996274z" fill="#5E4A3E" p-id="6341"></path><path d="M481.203586 660.140952s17.62963-18.932449 19.736316-19.597718l8.315863 23.977406-28.052179-4.379688z" fill="#D3C096" p-id="6342"></path><path d="M491.154903 632.199651s4.961798-15.883299 19.209644-33.873283v18.516655l-19.209644 15.356628z" fill="#FFFFFF" p-id="6343"></path><path d="M604.389242 529.831373l6.819008 20.817378-13.887492-2.273003z" fill="#D3C096" p-id="6344"></path><path d="M558.956908 812.293531s2.633357 19.930352 7.816912 23.921967l-15.023993 14.247846 7.207081-38.169813zM465.985556 812.34897s-2.577918 19.320523-7.650594 24.808993l15.023993 13.305381-7.373399-38.114374z" fill="#EDDACA" p-id="6345"></path><path d="M305.018161 849.52088c-1.19194-0.997904-29.632193-24.753553-43.103891-69.437459l7.955509-2.411601c12.723271 42.161427 40.16562 65.196369 40.442815 65.418125l-5.294433 6.430935zM92.908207 997.737284s-0.360354 14.746798 0 16.465409h8.038668s-0.02772-15.301189 0.277195-17.60191l-8.315863 1.136501z" fill="#5E4A3E" p-id="6346"></path><path d="M263.10621 783.243449s-12.058002-29.853949-4.185651-59.541582c0 0 3.04915 28.551131 12.16888 58.155605l-7.983229 1.385977zM715.738652 849.52088l-5.294433-6.430935c0.277195-0.221756 27.719544-23.256698 40.442815-65.418125l7.95551 2.411601c-13.471699 44.683906-41.884232 68.439555-43.103892 69.437459z" fill="#5E4A3E" p-id="6347"></path><path d="M757.678323 783.243449s12.058002-29.853949 4.185651-59.541582c0 0-3.04915 28.551131-12.16888 58.155605l7.983229 1.385977zM399.929882 535.957392l12.667832-11.420452-7.34568 19.902633z" fill="#5E4A3E" p-id="6348"></path><path d="M325.419746 273.092952l1.718612 12.473795 8.315863-6.791288z" fill="#E5CFBA" p-id="6349"></path><path d="M918.091327 996.517624s0.803867 17.65735 0.720708 17.65735H927.044739s-0.221756-12.834149-0.526671-17.65735H918.091327zM454.121591 1014.174974c4.490566-25.446542 7.31796-51.530633 13.748894-76.616821 0.138598-0.554391 0.277195-1.108782 0.443513-1.635453l7.595155-5.48847s-9.369206 30.131145-15.21803 83.740744h-6.569532zM567.161894 1014.174974c-4.490566-25.446542-7.31796-51.530633-13.748895-76.616821-0.138598-0.554391-0.277195-1.108782-0.443512-1.635453l-7.595155-5.48847s9.369206 30.131145 15.218029 83.740744h6.569533z" fill="#5E4A3E" p-id="6350"></path></svg>