<svg t="1712989359312" class="icon" viewBox="0 0 1024 1024" version="1.1" xmlns="http://www.w3.org/2000/svg" p-id="15763" width="200" height="200"><path d="M820.224 315.392C795.648 409.6 719.872 485.376 622.592 513.024c6.144 97.28 92.16 174.08 196.608 174.08 108.544 0 196.608-83.968 196.608-186.368-1.024-101.376-88.064-184.32-195.584-185.344zM636.928 641.024l-46.08 30.72-25.6-143.36c-12.288 1.024-27.648 2.048-40.96 2.048-17.408 0-31.744-2.048-48.128-4.096l-29.696 171.008-57.344-37.888c-10.24 11.264-18.432 17.408-29.696 27.648l72.704 93.184-18.432 106.496c36.864-9.216 76.8-12.288 115.712-12.288 35.84 0 64.512 2.048 97.28 8.192l-22.528-130.048 63.488-81.92c-13.312-12.288-21.504-17.408-30.72-29.696zM221.184 1024h620.544c-84.992-70.656-195.584-110.592-310.272-110.592s-225.28 39.936-310.272 110.592zM404.48 515.072c0-101.376-89.088-184.32-197.632-184.32C97.28 330.752 8.192 413.696 8.192 515.072s89.088 184.32 197.632 184.32c109.568 0 198.656-82.944 198.656-184.32z m-256-82.944c-35.84 20.48-58.368 56.32-58.368 95.232 0 8.192-7.168 14.336-15.36 14.336S59.392 535.552 59.392 527.36c0-49.152 27.648-94.208 72.704-119.808 7.168-4.096 16.384-2.048 20.48 5.12 6.144 7.168 3.072 15.36-4.096 19.456z" p-id="15764" fill="#bfbfbf"></path><path d="M437.248 475.136c27.648 9.216 57.344 14.336 89.088 14.336 145.408 0 263.168-109.568 263.168-244.736C790.528 109.568 671.744 0 526.336 0S263.168 109.568 263.168 244.736c0 20.48 3.072 40.96 8.192 59.392 86.016 21.504 151.552 88.064 165.888 171.008zM417.792 86.016c7.168-4.096 16.384-2.048 21.504 5.12 4.096 7.168 2.048 15.36-5.12 19.456-35.84 20.48-58.368 56.32-58.368 95.232 0 8.192-7.168 14.336-15.36 14.336s-15.36-6.144-15.36-14.336c0-48.128 27.648-94.208 72.704-119.808z" p-id="15765" fill="#bfbfbf"></path></svg>